%TF.GenerationSoftware,KiCad,Pcbnew,7.0.9*%
%TF.CreationDate,2023-11-19T21:06:30+01:00*%
%TF.ProjectId,arduino_display_board,61726475-696e-46f5-9f64-6973706c6179,rev?*%
%TF.SameCoordinates,Original*%
%TF.FileFunction,Legend,Top*%
%TF.FilePolarity,Positive*%
%FSLAX46Y46*%
G04 Gerber Fmt 4.6, Leading zero omitted, Abs format (unit mm)*
G04 Created by KiCad (PCBNEW 7.0.9) date 2023-11-19 21:06:30*
%MOMM*%
%LPD*%
G01*
G04 APERTURE LIST*
%ADD10C,0.150000*%
%ADD11C,0.120000*%
%ADD12R,3.000000X3.000000*%
%ADD13C,3.000000*%
%ADD14R,1.700000X1.700000*%
%ADD15O,1.700000X1.700000*%
%ADD16C,1.400000*%
%ADD17O,1.400000X1.400000*%
%ADD18R,1.600000X1.600000*%
%ADD19O,1.600000X1.600000*%
G04 APERTURE END LIST*
D10*
X59829819Y-80657506D02*
X60544104Y-80657506D01*
X60544104Y-80657506D02*
X60686961Y-80705125D01*
X60686961Y-80705125D02*
X60782200Y-80800363D01*
X60782200Y-80800363D02*
X60829819Y-80943220D01*
X60829819Y-80943220D02*
X60829819Y-81038458D01*
X60829819Y-79705125D02*
X60829819Y-80181315D01*
X60829819Y-80181315D02*
X59829819Y-80181315D01*
X60734580Y-78800363D02*
X60782200Y-78847982D01*
X60782200Y-78847982D02*
X60829819Y-78990839D01*
X60829819Y-78990839D02*
X60829819Y-79086077D01*
X60829819Y-79086077D02*
X60782200Y-79228934D01*
X60782200Y-79228934D02*
X60686961Y-79324172D01*
X60686961Y-79324172D02*
X60591723Y-79371791D01*
X60591723Y-79371791D02*
X60401247Y-79419410D01*
X60401247Y-79419410D02*
X60258390Y-79419410D01*
X60258390Y-79419410D02*
X60067914Y-79371791D01*
X60067914Y-79371791D02*
X59972676Y-79324172D01*
X59972676Y-79324172D02*
X59877438Y-79228934D01*
X59877438Y-79228934D02*
X59829819Y-79086077D01*
X59829819Y-79086077D02*
X59829819Y-78990839D01*
X59829819Y-78990839D02*
X59877438Y-78847982D01*
X59877438Y-78847982D02*
X59925057Y-78800363D01*
X59829819Y-78086077D02*
X60544104Y-78086077D01*
X60544104Y-78086077D02*
X60686961Y-78133696D01*
X60686961Y-78133696D02*
X60782200Y-78228934D01*
X60782200Y-78228934D02*
X60829819Y-78371791D01*
X60829819Y-78371791D02*
X60829819Y-78467029D01*
X60829819Y-77133696D02*
X60829819Y-77609886D01*
X60829819Y-77609886D02*
X59829819Y-77609886D01*
X60734580Y-76228934D02*
X60782200Y-76276553D01*
X60782200Y-76276553D02*
X60829819Y-76419410D01*
X60829819Y-76419410D02*
X60829819Y-76514648D01*
X60829819Y-76514648D02*
X60782200Y-76657505D01*
X60782200Y-76657505D02*
X60686961Y-76752743D01*
X60686961Y-76752743D02*
X60591723Y-76800362D01*
X60591723Y-76800362D02*
X60401247Y-76847981D01*
X60401247Y-76847981D02*
X60258390Y-76847981D01*
X60258390Y-76847981D02*
X60067914Y-76800362D01*
X60067914Y-76800362D02*
X59972676Y-76752743D01*
X59972676Y-76752743D02*
X59877438Y-76657505D01*
X59877438Y-76657505D02*
X59829819Y-76514648D01*
X59829819Y-76514648D02*
X59829819Y-76419410D01*
X59829819Y-76419410D02*
X59877438Y-76276553D01*
X59877438Y-76276553D02*
X59925057Y-76228934D01*
X59829819Y-75514648D02*
X60544104Y-75514648D01*
X60544104Y-75514648D02*
X60686961Y-75562267D01*
X60686961Y-75562267D02*
X60782200Y-75657505D01*
X60782200Y-75657505D02*
X60829819Y-75800362D01*
X60829819Y-75800362D02*
X60829819Y-75895600D01*
X60829819Y-74562267D02*
X60829819Y-75038457D01*
X60829819Y-75038457D02*
X59829819Y-75038457D01*
X60734580Y-73657505D02*
X60782200Y-73705124D01*
X60782200Y-73705124D02*
X60829819Y-73847981D01*
X60829819Y-73847981D02*
X60829819Y-73943219D01*
X60829819Y-73943219D02*
X60782200Y-74086076D01*
X60782200Y-74086076D02*
X60686961Y-74181314D01*
X60686961Y-74181314D02*
X60591723Y-74228933D01*
X60591723Y-74228933D02*
X60401247Y-74276552D01*
X60401247Y-74276552D02*
X60258390Y-74276552D01*
X60258390Y-74276552D02*
X60067914Y-74228933D01*
X60067914Y-74228933D02*
X59972676Y-74181314D01*
X59972676Y-74181314D02*
X59877438Y-74086076D01*
X59877438Y-74086076D02*
X59829819Y-73943219D01*
X59829819Y-73943219D02*
X59829819Y-73847981D01*
X59829819Y-73847981D02*
X59877438Y-73705124D01*
X59877438Y-73705124D02*
X59925057Y-73657505D01*
X59829819Y-72943219D02*
X60544104Y-72943219D01*
X60544104Y-72943219D02*
X60686961Y-72990838D01*
X60686961Y-72990838D02*
X60782200Y-73086076D01*
X60782200Y-73086076D02*
X60829819Y-73228933D01*
X60829819Y-73228933D02*
X60829819Y-73324171D01*
X60829819Y-71990838D02*
X60829819Y-72467028D01*
X60829819Y-72467028D02*
X59829819Y-72467028D01*
X60734580Y-71086076D02*
X60782200Y-71133695D01*
X60782200Y-71133695D02*
X60829819Y-71276552D01*
X60829819Y-71276552D02*
X60829819Y-71371790D01*
X60829819Y-71371790D02*
X60782200Y-71514647D01*
X60782200Y-71514647D02*
X60686961Y-71609885D01*
X60686961Y-71609885D02*
X60591723Y-71657504D01*
X60591723Y-71657504D02*
X60401247Y-71705123D01*
X60401247Y-71705123D02*
X60258390Y-71705123D01*
X60258390Y-71705123D02*
X60067914Y-71657504D01*
X60067914Y-71657504D02*
X59972676Y-71609885D01*
X59972676Y-71609885D02*
X59877438Y-71514647D01*
X59877438Y-71514647D02*
X59829819Y-71371790D01*
X59829819Y-71371790D02*
X59829819Y-71276552D01*
X59829819Y-71276552D02*
X59877438Y-71133695D01*
X59877438Y-71133695D02*
X59925057Y-71086076D01*
X75546009Y-85689887D02*
X75593628Y-85547030D01*
X75593628Y-85547030D02*
X75641247Y-85499411D01*
X75641247Y-85499411D02*
X75736485Y-85451792D01*
X75736485Y-85451792D02*
X75879342Y-85451792D01*
X75879342Y-85451792D02*
X75974580Y-85499411D01*
X75974580Y-85499411D02*
X76022200Y-85547030D01*
X76022200Y-85547030D02*
X76069819Y-85642268D01*
X76069819Y-85642268D02*
X76069819Y-86023220D01*
X76069819Y-86023220D02*
X75069819Y-86023220D01*
X75069819Y-86023220D02*
X75069819Y-85689887D01*
X75069819Y-85689887D02*
X75117438Y-85594649D01*
X75117438Y-85594649D02*
X75165057Y-85547030D01*
X75165057Y-85547030D02*
X75260295Y-85499411D01*
X75260295Y-85499411D02*
X75355533Y-85499411D01*
X75355533Y-85499411D02*
X75450771Y-85547030D01*
X75450771Y-85547030D02*
X75498390Y-85594649D01*
X75498390Y-85594649D02*
X75546009Y-85689887D01*
X75546009Y-85689887D02*
X75546009Y-86023220D01*
X75593628Y-84832744D02*
X76069819Y-84832744D01*
X75069819Y-85166077D02*
X75593628Y-84832744D01*
X75593628Y-84832744D02*
X75069819Y-84499411D01*
X75069819Y-83118458D02*
X75784104Y-83118458D01*
X75784104Y-83118458D02*
X75926961Y-83166077D01*
X75926961Y-83166077D02*
X76022200Y-83261315D01*
X76022200Y-83261315D02*
X76069819Y-83404172D01*
X76069819Y-83404172D02*
X76069819Y-83499410D01*
X75784104Y-82689886D02*
X75784104Y-82213696D01*
X76069819Y-82785124D02*
X75069819Y-82451791D01*
X75069819Y-82451791D02*
X76069819Y-82118458D01*
X75974580Y-81213696D02*
X76022200Y-81261315D01*
X76022200Y-81261315D02*
X76069819Y-81404172D01*
X76069819Y-81404172D02*
X76069819Y-81499410D01*
X76069819Y-81499410D02*
X76022200Y-81642267D01*
X76022200Y-81642267D02*
X75926961Y-81737505D01*
X75926961Y-81737505D02*
X75831723Y-81785124D01*
X75831723Y-81785124D02*
X75641247Y-81832743D01*
X75641247Y-81832743D02*
X75498390Y-81832743D01*
X75498390Y-81832743D02*
X75307914Y-81785124D01*
X75307914Y-81785124D02*
X75212676Y-81737505D01*
X75212676Y-81737505D02*
X75117438Y-81642267D01*
X75117438Y-81642267D02*
X75069819Y-81499410D01*
X75069819Y-81499410D02*
X75069819Y-81404172D01*
X75069819Y-81404172D02*
X75117438Y-81261315D01*
X75117438Y-81261315D02*
X75165057Y-81213696D01*
X75546009Y-80785124D02*
X75546009Y-80451791D01*
X76069819Y-80308934D02*
X76069819Y-80785124D01*
X76069819Y-80785124D02*
X75069819Y-80785124D01*
X75069819Y-80785124D02*
X75069819Y-80308934D01*
X76069819Y-79880362D02*
X75069819Y-79880362D01*
X76069819Y-79308934D02*
X75498390Y-79737505D01*
X75069819Y-79308934D02*
X75641247Y-79880362D01*
X76069819Y-78118457D02*
X75069819Y-78118457D01*
X76069819Y-77547029D02*
X75498390Y-77975600D01*
X75069819Y-77547029D02*
X75641247Y-78118457D01*
X75069819Y-76927981D02*
X75069819Y-76737505D01*
X75069819Y-76737505D02*
X75117438Y-76642267D01*
X75117438Y-76642267D02*
X75212676Y-76547029D01*
X75212676Y-76547029D02*
X75403152Y-76499410D01*
X75403152Y-76499410D02*
X75736485Y-76499410D01*
X75736485Y-76499410D02*
X75926961Y-76547029D01*
X75926961Y-76547029D02*
X76022200Y-76642267D01*
X76022200Y-76642267D02*
X76069819Y-76737505D01*
X76069819Y-76737505D02*
X76069819Y-76927981D01*
X76069819Y-76927981D02*
X76022200Y-77023219D01*
X76022200Y-77023219D02*
X75926961Y-77118457D01*
X75926961Y-77118457D02*
X75736485Y-77166076D01*
X75736485Y-77166076D02*
X75403152Y-77166076D01*
X75403152Y-77166076D02*
X75212676Y-77118457D01*
X75212676Y-77118457D02*
X75117438Y-77023219D01*
X75117438Y-77023219D02*
X75069819Y-76927981D01*
X75069819Y-76166076D02*
X75069819Y-75499410D01*
X75069819Y-75499410D02*
X76069819Y-76166076D01*
X76069819Y-76166076D02*
X76069819Y-75499410D01*
X75784104Y-75166076D02*
X75784104Y-74689886D01*
X76069819Y-75261314D02*
X75069819Y-74927981D01*
X75069819Y-74927981D02*
X76069819Y-74594648D01*
X76069819Y-74261314D02*
X75069819Y-74261314D01*
X76069819Y-73689886D02*
X75498390Y-74118457D01*
X75069819Y-73689886D02*
X75641247Y-74261314D01*
X75165057Y-72547028D02*
X75117438Y-72499409D01*
X75117438Y-72499409D02*
X75069819Y-72404171D01*
X75069819Y-72404171D02*
X75069819Y-72166076D01*
X75069819Y-72166076D02*
X75117438Y-72070838D01*
X75117438Y-72070838D02*
X75165057Y-72023219D01*
X75165057Y-72023219D02*
X75260295Y-71975600D01*
X75260295Y-71975600D02*
X75355533Y-71975600D01*
X75355533Y-71975600D02*
X75498390Y-72023219D01*
X75498390Y-72023219D02*
X76069819Y-72594647D01*
X76069819Y-72594647D02*
X76069819Y-71975600D01*
X75069819Y-71356552D02*
X75069819Y-71261314D01*
X75069819Y-71261314D02*
X75117438Y-71166076D01*
X75117438Y-71166076D02*
X75165057Y-71118457D01*
X75165057Y-71118457D02*
X75260295Y-71070838D01*
X75260295Y-71070838D02*
X75450771Y-71023219D01*
X75450771Y-71023219D02*
X75688866Y-71023219D01*
X75688866Y-71023219D02*
X75879342Y-71070838D01*
X75879342Y-71070838D02*
X75974580Y-71118457D01*
X75974580Y-71118457D02*
X76022200Y-71166076D01*
X76022200Y-71166076D02*
X76069819Y-71261314D01*
X76069819Y-71261314D02*
X76069819Y-71356552D01*
X76069819Y-71356552D02*
X76022200Y-71451790D01*
X76022200Y-71451790D02*
X75974580Y-71499409D01*
X75974580Y-71499409D02*
X75879342Y-71547028D01*
X75879342Y-71547028D02*
X75688866Y-71594647D01*
X75688866Y-71594647D02*
X75450771Y-71594647D01*
X75450771Y-71594647D02*
X75260295Y-71547028D01*
X75260295Y-71547028D02*
X75165057Y-71499409D01*
X75165057Y-71499409D02*
X75117438Y-71451790D01*
X75117438Y-71451790D02*
X75069819Y-71356552D01*
X75165057Y-70642266D02*
X75117438Y-70594647D01*
X75117438Y-70594647D02*
X75069819Y-70499409D01*
X75069819Y-70499409D02*
X75069819Y-70261314D01*
X75069819Y-70261314D02*
X75117438Y-70166076D01*
X75117438Y-70166076D02*
X75165057Y-70118457D01*
X75165057Y-70118457D02*
X75260295Y-70070838D01*
X75260295Y-70070838D02*
X75355533Y-70070838D01*
X75355533Y-70070838D02*
X75498390Y-70118457D01*
X75498390Y-70118457D02*
X76069819Y-70689885D01*
X76069819Y-70689885D02*
X76069819Y-70070838D01*
X75069819Y-69737504D02*
X75069819Y-69118457D01*
X75069819Y-69118457D02*
X75450771Y-69451790D01*
X75450771Y-69451790D02*
X75450771Y-69308933D01*
X75450771Y-69308933D02*
X75498390Y-69213695D01*
X75498390Y-69213695D02*
X75546009Y-69166076D01*
X75546009Y-69166076D02*
X75641247Y-69118457D01*
X75641247Y-69118457D02*
X75879342Y-69118457D01*
X75879342Y-69118457D02*
X75974580Y-69166076D01*
X75974580Y-69166076D02*
X76022200Y-69213695D01*
X76022200Y-69213695D02*
X76069819Y-69308933D01*
X76069819Y-69308933D02*
X76069819Y-69594647D01*
X76069819Y-69594647D02*
X76022200Y-69689885D01*
X76022200Y-69689885D02*
X75974580Y-69737504D01*
X65444761Y-48714819D02*
X65111428Y-48238628D01*
X64873333Y-48714819D02*
X64873333Y-47714819D01*
X64873333Y-47714819D02*
X65254285Y-47714819D01*
X65254285Y-47714819D02*
X65349523Y-47762438D01*
X65349523Y-47762438D02*
X65397142Y-47810057D01*
X65397142Y-47810057D02*
X65444761Y-47905295D01*
X65444761Y-47905295D02*
X65444761Y-48048152D01*
X65444761Y-48048152D02*
X65397142Y-48143390D01*
X65397142Y-48143390D02*
X65349523Y-48191009D01*
X65349523Y-48191009D02*
X65254285Y-48238628D01*
X65254285Y-48238628D02*
X64873333Y-48238628D01*
X65730476Y-47714819D02*
X66063809Y-48714819D01*
X66063809Y-48714819D02*
X66397142Y-47714819D01*
X67254285Y-48714819D02*
X66682857Y-48714819D01*
X66968571Y-48714819D02*
X66968571Y-47714819D01*
X66968571Y-47714819D02*
X66873333Y-47857676D01*
X66873333Y-47857676D02*
X66778095Y-47952914D01*
X66778095Y-47952914D02*
X66682857Y-48000533D01*
X80946666Y-90894819D02*
X80946666Y-91609104D01*
X80946666Y-91609104D02*
X80899047Y-91751961D01*
X80899047Y-91751961D02*
X80803809Y-91847200D01*
X80803809Y-91847200D02*
X80660952Y-91894819D01*
X80660952Y-91894819D02*
X80565714Y-91894819D01*
X81327619Y-90894819D02*
X81946666Y-90894819D01*
X81946666Y-90894819D02*
X81613333Y-91275771D01*
X81613333Y-91275771D02*
X81756190Y-91275771D01*
X81756190Y-91275771D02*
X81851428Y-91323390D01*
X81851428Y-91323390D02*
X81899047Y-91371009D01*
X81899047Y-91371009D02*
X81946666Y-91466247D01*
X81946666Y-91466247D02*
X81946666Y-91704342D01*
X81946666Y-91704342D02*
X81899047Y-91799580D01*
X81899047Y-91799580D02*
X81851428Y-91847200D01*
X81851428Y-91847200D02*
X81756190Y-91894819D01*
X81756190Y-91894819D02*
X81470476Y-91894819D01*
X81470476Y-91894819D02*
X81375238Y-91847200D01*
X81375238Y-91847200D02*
X81327619Y-91799580D01*
X72194819Y-45886666D02*
X71718628Y-46219999D01*
X72194819Y-46458094D02*
X71194819Y-46458094D01*
X71194819Y-46458094D02*
X71194819Y-46077142D01*
X71194819Y-46077142D02*
X71242438Y-45981904D01*
X71242438Y-45981904D02*
X71290057Y-45934285D01*
X71290057Y-45934285D02*
X71385295Y-45886666D01*
X71385295Y-45886666D02*
X71528152Y-45886666D01*
X71528152Y-45886666D02*
X71623390Y-45934285D01*
X71623390Y-45934285D02*
X71671009Y-45981904D01*
X71671009Y-45981904D02*
X71718628Y-46077142D01*
X71718628Y-46077142D02*
X71718628Y-46458094D01*
X72194819Y-44934285D02*
X72194819Y-45505713D01*
X72194819Y-45219999D02*
X71194819Y-45219999D01*
X71194819Y-45219999D02*
X71337676Y-45315237D01*
X71337676Y-45315237D02*
X71432914Y-45410475D01*
X71432914Y-45410475D02*
X71480533Y-45505713D01*
X60965714Y-50689104D02*
X61441904Y-50689104D01*
X60870476Y-50974819D02*
X61203809Y-49974819D01*
X61203809Y-49974819D02*
X61537142Y-50974819D01*
X62394285Y-50974819D02*
X61822857Y-50974819D01*
X62108571Y-50974819D02*
X62108571Y-49974819D01*
X62108571Y-49974819D02*
X62013333Y-50117676D01*
X62013333Y-50117676D02*
X61918095Y-50212914D01*
X61918095Y-50212914D02*
X61822857Y-50260533D01*
X60418095Y-90614819D02*
X60418095Y-91424342D01*
X60418095Y-91424342D02*
X60465714Y-91519580D01*
X60465714Y-91519580D02*
X60513333Y-91567200D01*
X60513333Y-91567200D02*
X60608571Y-91614819D01*
X60608571Y-91614819D02*
X60799047Y-91614819D01*
X60799047Y-91614819D02*
X60894285Y-91567200D01*
X60894285Y-91567200D02*
X60941904Y-91519580D01*
X60941904Y-91519580D02*
X60989523Y-91424342D01*
X60989523Y-91424342D02*
X60989523Y-90614819D01*
X61418095Y-91567200D02*
X61560952Y-91614819D01*
X61560952Y-91614819D02*
X61799047Y-91614819D01*
X61799047Y-91614819D02*
X61894285Y-91567200D01*
X61894285Y-91567200D02*
X61941904Y-91519580D01*
X61941904Y-91519580D02*
X61989523Y-91424342D01*
X61989523Y-91424342D02*
X61989523Y-91329104D01*
X61989523Y-91329104D02*
X61941904Y-91233866D01*
X61941904Y-91233866D02*
X61894285Y-91186247D01*
X61894285Y-91186247D02*
X61799047Y-91138628D01*
X61799047Y-91138628D02*
X61608571Y-91091009D01*
X61608571Y-91091009D02*
X61513333Y-91043390D01*
X61513333Y-91043390D02*
X61465714Y-90995771D01*
X61465714Y-90995771D02*
X61418095Y-90900533D01*
X61418095Y-90900533D02*
X61418095Y-90805295D01*
X61418095Y-90805295D02*
X61465714Y-90710057D01*
X61465714Y-90710057D02*
X61513333Y-90662438D01*
X61513333Y-90662438D02*
X61608571Y-90614819D01*
X61608571Y-90614819D02*
X61846666Y-90614819D01*
X61846666Y-90614819D02*
X61989523Y-90662438D01*
X62751428Y-91091009D02*
X62894285Y-91138628D01*
X62894285Y-91138628D02*
X62941904Y-91186247D01*
X62941904Y-91186247D02*
X62989523Y-91281485D01*
X62989523Y-91281485D02*
X62989523Y-91424342D01*
X62989523Y-91424342D02*
X62941904Y-91519580D01*
X62941904Y-91519580D02*
X62894285Y-91567200D01*
X62894285Y-91567200D02*
X62799047Y-91614819D01*
X62799047Y-91614819D02*
X62418095Y-91614819D01*
X62418095Y-91614819D02*
X62418095Y-90614819D01*
X62418095Y-90614819D02*
X62751428Y-90614819D01*
X62751428Y-90614819D02*
X62846666Y-90662438D01*
X62846666Y-90662438D02*
X62894285Y-90710057D01*
X62894285Y-90710057D02*
X62941904Y-90805295D01*
X62941904Y-90805295D02*
X62941904Y-90900533D01*
X62941904Y-90900533D02*
X62894285Y-90995771D01*
X62894285Y-90995771D02*
X62846666Y-91043390D01*
X62846666Y-91043390D02*
X62751428Y-91091009D01*
X62751428Y-91091009D02*
X62418095Y-91091009D01*
X73326666Y-55124819D02*
X73326666Y-55839104D01*
X73326666Y-55839104D02*
X73279047Y-55981961D01*
X73279047Y-55981961D02*
X73183809Y-56077200D01*
X73183809Y-56077200D02*
X73040952Y-56124819D01*
X73040952Y-56124819D02*
X72945714Y-56124819D01*
X73755238Y-55220057D02*
X73802857Y-55172438D01*
X73802857Y-55172438D02*
X73898095Y-55124819D01*
X73898095Y-55124819D02*
X74136190Y-55124819D01*
X74136190Y-55124819D02*
X74231428Y-55172438D01*
X74231428Y-55172438D02*
X74279047Y-55220057D01*
X74279047Y-55220057D02*
X74326666Y-55315295D01*
X74326666Y-55315295D02*
X74326666Y-55410533D01*
X74326666Y-55410533D02*
X74279047Y-55553390D01*
X74279047Y-55553390D02*
X73707619Y-56124819D01*
X73707619Y-56124819D02*
X74326666Y-56124819D01*
X75866666Y-90894819D02*
X75866666Y-91609104D01*
X75866666Y-91609104D02*
X75819047Y-91751961D01*
X75819047Y-91751961D02*
X75723809Y-91847200D01*
X75723809Y-91847200D02*
X75580952Y-91894819D01*
X75580952Y-91894819D02*
X75485714Y-91894819D01*
X76866666Y-91894819D02*
X76295238Y-91894819D01*
X76580952Y-91894819D02*
X76580952Y-90894819D01*
X76580952Y-90894819D02*
X76485714Y-91037676D01*
X76485714Y-91037676D02*
X76390476Y-91132914D01*
X76390476Y-91132914D02*
X76295238Y-91180533D01*
D11*
%TO.C,RV1*%
X57920000Y-24260000D02*
X64160000Y-24260000D01*
X64160000Y-34260000D02*
X64160000Y-24260000D01*
X57920000Y-34260000D02*
X57920000Y-24260000D01*
X57420000Y-34260000D02*
X64660000Y-34260000D01*
X64660000Y-39260000D02*
X64660000Y-34260000D01*
X57420000Y-39260000D02*
X57420000Y-34260000D01*
X51970000Y-39260000D02*
X70110000Y-39260000D01*
X70110000Y-50000000D02*
X70110000Y-39260000D01*
X51970000Y-50000000D02*
X51970000Y-39260000D01*
X51970000Y-50000000D02*
X70110000Y-50000000D01*
%TO.C,J3*%
X85150000Y-90170000D02*
X85150000Y-41850000D01*
X85150000Y-90170000D02*
X82490000Y-90170000D01*
X85150000Y-41850000D02*
X82490000Y-41850000D01*
X83820000Y-92770000D02*
X82490000Y-92770000D01*
X82490000Y-92770000D02*
X82490000Y-91440000D01*
X82490000Y-90170000D02*
X82490000Y-41850000D01*
%TO.C,R1*%
X73660000Y-44800000D02*
X73660000Y-44180000D01*
X74580000Y-45720000D02*
G75*
G03*
X74580000Y-45720000I-920000J0D01*
G01*
%TO.C,A1*%
X52660000Y-51660000D02*
X52660000Y-54330000D01*
X52660000Y-56870000D02*
X52660000Y-95100000D01*
X52660000Y-95100000D02*
X57740000Y-95100000D01*
X55330000Y-54330000D02*
X52660000Y-54330000D01*
X55330000Y-56870000D02*
X52660000Y-56870000D01*
X55330000Y-56870000D02*
X55330000Y-54330000D01*
X55330000Y-56870000D02*
X55330000Y-92430000D01*
X55330000Y-92430000D02*
X52660000Y-92430000D01*
X57740000Y-87220000D02*
X65620000Y-87220000D01*
X57740000Y-97640000D02*
X57740000Y-87220000D01*
X65620000Y-87220000D02*
X65620000Y-97640000D01*
X65620000Y-97640000D02*
X57740000Y-97640000D01*
X68030000Y-54330000D02*
X68030000Y-92430000D01*
X68030000Y-54330000D02*
X70700000Y-54330000D01*
X68030000Y-92430000D02*
X70700000Y-92430000D01*
X70700000Y-51660000D02*
X52660000Y-51660000D01*
X70700000Y-95100000D02*
X65620000Y-95100000D01*
X70700000Y-95100000D02*
X70700000Y-51660000D01*
%TO.C,J2*%
X74990000Y-54670000D02*
X73660000Y-54670000D01*
X74990000Y-53340000D02*
X74990000Y-54670000D01*
X74990000Y-52070000D02*
X74990000Y-49470000D01*
X74990000Y-52070000D02*
X72330000Y-52070000D01*
X74990000Y-49470000D02*
X72330000Y-49470000D01*
X72330000Y-52070000D02*
X72330000Y-49470000D01*
%TO.C,J1*%
X80070000Y-90170000D02*
X80070000Y-41850000D01*
X80070000Y-90170000D02*
X77410000Y-90170000D01*
X80070000Y-41850000D02*
X77410000Y-41850000D01*
X78740000Y-92770000D02*
X77410000Y-92770000D01*
X77410000Y-92770000D02*
X77410000Y-91440000D01*
X77410000Y-90170000D02*
X77410000Y-41850000D01*
%TD*%
%LPC*%
D12*
%TO.C,RV1*%
X66040000Y-43180000D03*
D13*
X61040000Y-43180000D03*
X56040000Y-43180000D03*
%TD*%
D14*
%TO.C,J3*%
X83820000Y-91440000D03*
D15*
X83820000Y-88900000D03*
X83820000Y-86360000D03*
X83820000Y-83820000D03*
X83820000Y-81280000D03*
X83820000Y-78740000D03*
X83820000Y-76200000D03*
X83820000Y-73660000D03*
X83820000Y-71120000D03*
X83820000Y-68580000D03*
X83820000Y-66040000D03*
X83820000Y-63500000D03*
X83820000Y-60960000D03*
X83820000Y-58420000D03*
X83820000Y-55880000D03*
X83820000Y-53340000D03*
X83820000Y-50800000D03*
X83820000Y-48260000D03*
X83820000Y-45720000D03*
X83820000Y-43180000D03*
%TD*%
D16*
%TO.C,R1*%
X73660000Y-45720000D03*
D17*
X73660000Y-43180000D03*
%TD*%
D18*
%TO.C,A1*%
X54060000Y-55600000D03*
D19*
X54060000Y-58140000D03*
X54060000Y-60680000D03*
X54060000Y-63220000D03*
X54060000Y-65760000D03*
X54060000Y-68300000D03*
X54060000Y-70840000D03*
X54060000Y-73380000D03*
X54060000Y-75920000D03*
X54060000Y-78460000D03*
X54060000Y-81000000D03*
X54060000Y-83540000D03*
X54060000Y-86080000D03*
X54060000Y-88620000D03*
X54060000Y-91160000D03*
X69300000Y-91160000D03*
X69300000Y-88620000D03*
X69300000Y-86080000D03*
X69300000Y-83540000D03*
X69300000Y-81000000D03*
X69300000Y-78460000D03*
X69300000Y-75920000D03*
X69300000Y-73380000D03*
X69300000Y-70840000D03*
X69300000Y-68300000D03*
X69300000Y-65760000D03*
X69300000Y-63220000D03*
X69300000Y-60680000D03*
X69300000Y-58140000D03*
X69300000Y-55600000D03*
%TD*%
D14*
%TO.C,J2*%
X73660000Y-53340000D03*
D15*
X73660000Y-50800000D03*
%TD*%
D14*
%TO.C,J1*%
X78740000Y-91440000D03*
D15*
X78740000Y-88900000D03*
X78740000Y-86360000D03*
X78740000Y-83820000D03*
X78740000Y-81280000D03*
X78740000Y-78740000D03*
X78740000Y-76200000D03*
X78740000Y-73660000D03*
X78740000Y-71120000D03*
X78740000Y-68580000D03*
X78740000Y-66040000D03*
X78740000Y-63500000D03*
X78740000Y-60960000D03*
X78740000Y-58420000D03*
X78740000Y-55880000D03*
X78740000Y-53340000D03*
X78740000Y-50800000D03*
X78740000Y-48260000D03*
X78740000Y-45720000D03*
X78740000Y-43180000D03*
%TD*%
%LPD*%
M02*
