%TF.GenerationSoftware,KiCad,Pcbnew,7.0.9*%
%TF.CreationDate,2023-11-19T21:06:34+01:00*%
%TF.ProjectId,arduino_display_board,61726475-696e-46f5-9f64-6973706c6179,rev?*%
%TF.SameCoordinates,Original*%
%TF.FileFunction,Drillmap*%
%TF.FilePolarity,Positive*%
%FSLAX45Y45*%
G04 Gerber Fmt 4.5, Leading zero omitted, Abs format (unit mm)*
G04 Created by KiCad (PCBNEW 7.0.9) date 2023-11-19 21:06:34*
%MOMM*%
%LPD*%
G01*
G04 APERTURE LIST*
%ADD10C,0.100000*%
%ADD11C,0.200000*%
G04 APERTURE END LIST*
D10*
X5080000Y-9398000D02*
X8636000Y-9398000D01*
X5080000Y-4064000D02*
X5080000Y-9398000D01*
X8636000Y-9398000D02*
X8636000Y-4064000D01*
X8636000Y-4064000D02*
X5080000Y-4064000D01*
D11*
X5335777Y-9714484D02*
X5335777Y-9514484D01*
X5335777Y-9514484D02*
X5383396Y-9514484D01*
X5383396Y-9514484D02*
X5411967Y-9524008D01*
X5411967Y-9524008D02*
X5431015Y-9543055D01*
X5431015Y-9543055D02*
X5440539Y-9562103D01*
X5440539Y-9562103D02*
X5450063Y-9600198D01*
X5450063Y-9600198D02*
X5450063Y-9628770D01*
X5450063Y-9628770D02*
X5440539Y-9666865D01*
X5440539Y-9666865D02*
X5431015Y-9685912D01*
X5431015Y-9685912D02*
X5411967Y-9704960D01*
X5411967Y-9704960D02*
X5383396Y-9714484D01*
X5383396Y-9714484D02*
X5335777Y-9714484D01*
X5535777Y-9714484D02*
X5535777Y-9581150D01*
X5535777Y-9619246D02*
X5545301Y-9600198D01*
X5545301Y-9600198D02*
X5554824Y-9590674D01*
X5554824Y-9590674D02*
X5573872Y-9581150D01*
X5573872Y-9581150D02*
X5592920Y-9581150D01*
X5659586Y-9714484D02*
X5659586Y-9581150D01*
X5659586Y-9514484D02*
X5650062Y-9524008D01*
X5650062Y-9524008D02*
X5659586Y-9533531D01*
X5659586Y-9533531D02*
X5669110Y-9524008D01*
X5669110Y-9524008D02*
X5659586Y-9514484D01*
X5659586Y-9514484D02*
X5659586Y-9533531D01*
X5783396Y-9714484D02*
X5764348Y-9704960D01*
X5764348Y-9704960D02*
X5754824Y-9685912D01*
X5754824Y-9685912D02*
X5754824Y-9514484D01*
X5888158Y-9714484D02*
X5869110Y-9704960D01*
X5869110Y-9704960D02*
X5859586Y-9685912D01*
X5859586Y-9685912D02*
X5859586Y-9514484D01*
X6116729Y-9714484D02*
X6116729Y-9514484D01*
X6116729Y-9514484D02*
X6183396Y-9657341D01*
X6183396Y-9657341D02*
X6250062Y-9514484D01*
X6250062Y-9514484D02*
X6250062Y-9714484D01*
X6431015Y-9714484D02*
X6431015Y-9609722D01*
X6431015Y-9609722D02*
X6421491Y-9590674D01*
X6421491Y-9590674D02*
X6402443Y-9581150D01*
X6402443Y-9581150D02*
X6364348Y-9581150D01*
X6364348Y-9581150D02*
X6345301Y-9590674D01*
X6431015Y-9704960D02*
X6411967Y-9714484D01*
X6411967Y-9714484D02*
X6364348Y-9714484D01*
X6364348Y-9714484D02*
X6345301Y-9704960D01*
X6345301Y-9704960D02*
X6335777Y-9685912D01*
X6335777Y-9685912D02*
X6335777Y-9666865D01*
X6335777Y-9666865D02*
X6345301Y-9647817D01*
X6345301Y-9647817D02*
X6364348Y-9638293D01*
X6364348Y-9638293D02*
X6411967Y-9638293D01*
X6411967Y-9638293D02*
X6431015Y-9628770D01*
X6526253Y-9581150D02*
X6526253Y-9781150D01*
X6526253Y-9590674D02*
X6545301Y-9581150D01*
X6545301Y-9581150D02*
X6583396Y-9581150D01*
X6583396Y-9581150D02*
X6602443Y-9590674D01*
X6602443Y-9590674D02*
X6611967Y-9600198D01*
X6611967Y-9600198D02*
X6621491Y-9619246D01*
X6621491Y-9619246D02*
X6621491Y-9676389D01*
X6621491Y-9676389D02*
X6611967Y-9695436D01*
X6611967Y-9695436D02*
X6602443Y-9704960D01*
X6602443Y-9704960D02*
X6583396Y-9714484D01*
X6583396Y-9714484D02*
X6545301Y-9714484D01*
X6545301Y-9714484D02*
X6526253Y-9704960D01*
X6707205Y-9695436D02*
X6716729Y-9704960D01*
X6716729Y-9704960D02*
X6707205Y-9714484D01*
X6707205Y-9714484D02*
X6697682Y-9704960D01*
X6697682Y-9704960D02*
X6707205Y-9695436D01*
X6707205Y-9695436D02*
X6707205Y-9714484D01*
X6707205Y-9590674D02*
X6716729Y-9600198D01*
X6716729Y-9600198D02*
X6707205Y-9609722D01*
X6707205Y-9609722D02*
X6697682Y-9600198D01*
X6697682Y-9600198D02*
X6707205Y-9590674D01*
X6707205Y-9590674D02*
X6707205Y-9609722D01*
M02*
