M48
; DRILL file {KiCad 7.0.9} date Sun 19 Nov 2023 09:06:33 PM CET
; FORMAT={-:-/ absolute / metric / decimal}
; #@! TF.CreationDate,2023-11-19T21:06:33+01:00
; #@! TF.GenerationSoftware,Kicad,Pcbnew,7.0.9
; #@! TF.FileFunction,Plated,1,2,PTH
FMAT,2
METRIC
; #@! TA.AperFunction,Plated,PTH,ViaDrill
T1C0.400
; #@! TA.AperFunction,Plated,PTH,ComponentDrill
T2C0.700
; #@! TA.AperFunction,Plated,PTH,ComponentDrill
T3C1.000
; #@! TA.AperFunction,Plated,PTH,ComponentDrill
T4C1.200
%
G90
G05
T1
X72.638Y-57.153
T2
X73.66Y-43.18
X73.66Y-45.72
T3
X54.06Y-55.6
X54.06Y-58.14
X54.06Y-60.68
X54.06Y-63.22
X54.06Y-65.76
X54.06Y-68.3
X54.06Y-70.84
X54.06Y-73.38
X54.06Y-75.92
X54.06Y-78.46
X54.06Y-81.0
X54.06Y-83.54
X54.06Y-86.08
X54.06Y-88.62
X54.06Y-91.16
X69.3Y-55.6
X69.3Y-58.14
X69.3Y-60.68
X69.3Y-63.22
X69.3Y-65.76
X69.3Y-68.3
X69.3Y-70.84
X69.3Y-73.38
X69.3Y-75.92
X69.3Y-78.46
X69.3Y-81.0
X69.3Y-83.54
X69.3Y-86.08
X69.3Y-88.62
X69.3Y-91.16
X73.66Y-50.8
X73.66Y-53.34
X78.74Y-43.18
X78.74Y-45.72
X78.74Y-48.26
X78.74Y-50.8
X78.74Y-53.34
X78.74Y-55.88
X78.74Y-58.42
X78.74Y-60.96
X78.74Y-63.5
X78.74Y-66.04
X78.74Y-68.58
X78.74Y-71.12
X78.74Y-73.66
X78.74Y-76.2
X78.74Y-78.74
X78.74Y-81.28
X78.74Y-83.82
X78.74Y-86.36
X78.74Y-88.9
X78.74Y-91.44
X83.82Y-43.18
X83.82Y-45.72
X83.82Y-48.26
X83.82Y-50.8
X83.82Y-53.34
X83.82Y-55.88
X83.82Y-58.42
X83.82Y-60.96
X83.82Y-63.5
X83.82Y-66.04
X83.82Y-68.58
X83.82Y-71.12
X83.82Y-73.66
X83.82Y-76.2
X83.82Y-78.74
X83.82Y-81.28
X83.82Y-83.82
X83.82Y-86.36
X83.82Y-88.9
X83.82Y-91.44
T4
X56.04Y-43.18
X61.04Y-43.18
X66.04Y-43.18
T0
M30
