%TF.GenerationSoftware,KiCad,Pcbnew,7.0.9*%
%TF.CreationDate,2023-11-19T21:06:34+01:00*%
%TF.ProjectId,arduino_display_board,61726475-696e-46f5-9f64-6973706c6179,rev?*%
%TF.SameCoordinates,Original*%
%TF.FileFunction,Drillmap*%
%TF.FilePolarity,Positive*%
%FSLAX45Y45*%
G04 Gerber Fmt 4.5, Leading zero omitted, Abs format (unit mm)*
G04 Created by KiCad (PCBNEW 7.0.9) date 2023-11-19 21:06:34*
%MOMM*%
%LPD*%
G01*
G04 APERTURE LIST*
%ADD10C,0.100000*%
%ADD11C,0.200000*%
%ADD12C,0.120000*%
G04 APERTURE END LIST*
D10*
X5080000Y-9398000D02*
X8636000Y-9398000D01*
X5080000Y-4064000D02*
X5080000Y-9398000D01*
X8636000Y-9398000D02*
X8636000Y-4064000D01*
X8636000Y-4064000D02*
X5080000Y-4064000D01*
D11*
D10*
X7243820Y-5695280D02*
X7283820Y-5735280D01*
X7283820Y-5695280D02*
X7243820Y-5735280D01*
X7401000Y-4318000D02*
G75*
G03*
X7401000Y-4318000I-35000J0D01*
G01*
X7401000Y-4572000D02*
G75*
G03*
X7401000Y-4572000I-35000J0D01*
G01*
X5406000Y-5510000D02*
X5406000Y-5610000D01*
X5356000Y-5560000D02*
X5456000Y-5560000D01*
X5406000Y-5764000D02*
X5406000Y-5864000D01*
X5356000Y-5814000D02*
X5456000Y-5814000D01*
X5406000Y-6018000D02*
X5406000Y-6118000D01*
X5356000Y-6068000D02*
X5456000Y-6068000D01*
X5406000Y-6272000D02*
X5406000Y-6372000D01*
X5356000Y-6322000D02*
X5456000Y-6322000D01*
X5406000Y-6526000D02*
X5406000Y-6626000D01*
X5356000Y-6576000D02*
X5456000Y-6576000D01*
X5406000Y-6780000D02*
X5406000Y-6880000D01*
X5356000Y-6830000D02*
X5456000Y-6830000D01*
X5406000Y-7034000D02*
X5406000Y-7134000D01*
X5356000Y-7084000D02*
X5456000Y-7084000D01*
X5406000Y-7288000D02*
X5406000Y-7388000D01*
X5356000Y-7338000D02*
X5456000Y-7338000D01*
X5406000Y-7542000D02*
X5406000Y-7642000D01*
X5356000Y-7592000D02*
X5456000Y-7592000D01*
X5406000Y-7796000D02*
X5406000Y-7896000D01*
X5356000Y-7846000D02*
X5456000Y-7846000D01*
X5406000Y-8050000D02*
X5406000Y-8150000D01*
X5356000Y-8100000D02*
X5456000Y-8100000D01*
X5406000Y-8304000D02*
X5406000Y-8404000D01*
X5356000Y-8354000D02*
X5456000Y-8354000D01*
X5406000Y-8558000D02*
X5406000Y-8658000D01*
X5356000Y-8608000D02*
X5456000Y-8608000D01*
X5406000Y-8812000D02*
X5406000Y-8912000D01*
X5356000Y-8862000D02*
X5456000Y-8862000D01*
X5406000Y-9066000D02*
X5406000Y-9166000D01*
X5356000Y-9116000D02*
X5456000Y-9116000D01*
X6930000Y-5510000D02*
X6930000Y-5610000D01*
X6880000Y-5560000D02*
X6980000Y-5560000D01*
X6930000Y-5764000D02*
X6930000Y-5864000D01*
X6880000Y-5814000D02*
X6980000Y-5814000D01*
X6930000Y-6018000D02*
X6930000Y-6118000D01*
X6880000Y-6068000D02*
X6980000Y-6068000D01*
X6930000Y-6272000D02*
X6930000Y-6372000D01*
X6880000Y-6322000D02*
X6980000Y-6322000D01*
X6930000Y-6526000D02*
X6930000Y-6626000D01*
X6880000Y-6576000D02*
X6980000Y-6576000D01*
X6930000Y-6780000D02*
X6930000Y-6880000D01*
X6880000Y-6830000D02*
X6980000Y-6830000D01*
X6930000Y-7034000D02*
X6930000Y-7134000D01*
X6880000Y-7084000D02*
X6980000Y-7084000D01*
X6930000Y-7288000D02*
X6930000Y-7388000D01*
X6880000Y-7338000D02*
X6980000Y-7338000D01*
X6930000Y-7542000D02*
X6930000Y-7642000D01*
X6880000Y-7592000D02*
X6980000Y-7592000D01*
X6930000Y-7796000D02*
X6930000Y-7896000D01*
X6880000Y-7846000D02*
X6980000Y-7846000D01*
X6930000Y-8050000D02*
X6930000Y-8150000D01*
X6880000Y-8100000D02*
X6980000Y-8100000D01*
X6930000Y-8304000D02*
X6930000Y-8404000D01*
X6880000Y-8354000D02*
X6980000Y-8354000D01*
X6930000Y-8558000D02*
X6930000Y-8658000D01*
X6880000Y-8608000D02*
X6980000Y-8608000D01*
X6930000Y-8812000D02*
X6930000Y-8912000D01*
X6880000Y-8862000D02*
X6980000Y-8862000D01*
X6930000Y-9066000D02*
X6930000Y-9166000D01*
X6880000Y-9116000D02*
X6980000Y-9116000D01*
X7366000Y-5030000D02*
X7366000Y-5130000D01*
X7316000Y-5080000D02*
X7416000Y-5080000D01*
X7366000Y-5284000D02*
X7366000Y-5384000D01*
X7316000Y-5334000D02*
X7416000Y-5334000D01*
X7874000Y-4268000D02*
X7874000Y-4368000D01*
X7824000Y-4318000D02*
X7924000Y-4318000D01*
X7874000Y-4522000D02*
X7874000Y-4622000D01*
X7824000Y-4572000D02*
X7924000Y-4572000D01*
X7874000Y-4776000D02*
X7874000Y-4876000D01*
X7824000Y-4826000D02*
X7924000Y-4826000D01*
X7874000Y-5030000D02*
X7874000Y-5130000D01*
X7824000Y-5080000D02*
X7924000Y-5080000D01*
X7874000Y-5284000D02*
X7874000Y-5384000D01*
X7824000Y-5334000D02*
X7924000Y-5334000D01*
X7874000Y-5538000D02*
X7874000Y-5638000D01*
X7824000Y-5588000D02*
X7924000Y-5588000D01*
X7874000Y-5792000D02*
X7874000Y-5892000D01*
X7824000Y-5842000D02*
X7924000Y-5842000D01*
X7874000Y-6046000D02*
X7874000Y-6146000D01*
X7824000Y-6096000D02*
X7924000Y-6096000D01*
X7874000Y-6300000D02*
X7874000Y-6400000D01*
X7824000Y-6350000D02*
X7924000Y-6350000D01*
X7874000Y-6554000D02*
X7874000Y-6654000D01*
X7824000Y-6604000D02*
X7924000Y-6604000D01*
X7874000Y-6808000D02*
X7874000Y-6908000D01*
X7824000Y-6858000D02*
X7924000Y-6858000D01*
X7874000Y-7062000D02*
X7874000Y-7162000D01*
X7824000Y-7112000D02*
X7924000Y-7112000D01*
X7874000Y-7316000D02*
X7874000Y-7416000D01*
X7824000Y-7366000D02*
X7924000Y-7366000D01*
X7874000Y-7570000D02*
X7874000Y-7670000D01*
X7824000Y-7620000D02*
X7924000Y-7620000D01*
X7874000Y-7824000D02*
X7874000Y-7924000D01*
X7824000Y-7874000D02*
X7924000Y-7874000D01*
X7874000Y-8078000D02*
X7874000Y-8178000D01*
X7824000Y-8128000D02*
X7924000Y-8128000D01*
X7874000Y-8332000D02*
X7874000Y-8432000D01*
X7824000Y-8382000D02*
X7924000Y-8382000D01*
X7874000Y-8586000D02*
X7874000Y-8686000D01*
X7824000Y-8636000D02*
X7924000Y-8636000D01*
X7874000Y-8840000D02*
X7874000Y-8940000D01*
X7824000Y-8890000D02*
X7924000Y-8890000D01*
X7874000Y-9094000D02*
X7874000Y-9194000D01*
X7824000Y-9144000D02*
X7924000Y-9144000D01*
X8382000Y-4268000D02*
X8382000Y-4368000D01*
X8332000Y-4318000D02*
X8432000Y-4318000D01*
X8382000Y-4522000D02*
X8382000Y-4622000D01*
X8332000Y-4572000D02*
X8432000Y-4572000D01*
X8382000Y-4776000D02*
X8382000Y-4876000D01*
X8332000Y-4826000D02*
X8432000Y-4826000D01*
X8382000Y-5030000D02*
X8382000Y-5130000D01*
X8332000Y-5080000D02*
X8432000Y-5080000D01*
X8382000Y-5284000D02*
X8382000Y-5384000D01*
X8332000Y-5334000D02*
X8432000Y-5334000D01*
X8382000Y-5538000D02*
X8382000Y-5638000D01*
X8332000Y-5588000D02*
X8432000Y-5588000D01*
X8382000Y-5792000D02*
X8382000Y-5892000D01*
X8332000Y-5842000D02*
X8432000Y-5842000D01*
X8382000Y-6046000D02*
X8382000Y-6146000D01*
X8332000Y-6096000D02*
X8432000Y-6096000D01*
X8382000Y-6300000D02*
X8382000Y-6400000D01*
X8332000Y-6350000D02*
X8432000Y-6350000D01*
X8382000Y-6554000D02*
X8382000Y-6654000D01*
X8332000Y-6604000D02*
X8432000Y-6604000D01*
X8382000Y-6808000D02*
X8382000Y-6908000D01*
X8332000Y-6858000D02*
X8432000Y-6858000D01*
X8382000Y-7062000D02*
X8382000Y-7162000D01*
X8332000Y-7112000D02*
X8432000Y-7112000D01*
X8382000Y-7316000D02*
X8382000Y-7416000D01*
X8332000Y-7366000D02*
X8432000Y-7366000D01*
X8382000Y-7570000D02*
X8382000Y-7670000D01*
X8332000Y-7620000D02*
X8432000Y-7620000D01*
X8382000Y-7824000D02*
X8382000Y-7924000D01*
X8332000Y-7874000D02*
X8432000Y-7874000D01*
X8382000Y-8078000D02*
X8382000Y-8178000D01*
X8332000Y-8128000D02*
X8432000Y-8128000D01*
X8382000Y-8332000D02*
X8382000Y-8432000D01*
X8332000Y-8382000D02*
X8432000Y-8382000D01*
X8382000Y-8586000D02*
X8382000Y-8686000D01*
X8332000Y-8636000D02*
X8432000Y-8636000D01*
X8382000Y-8840000D02*
X8382000Y-8940000D01*
X8332000Y-8890000D02*
X8432000Y-8890000D01*
X8382000Y-9094000D02*
X8382000Y-9194000D01*
X8332000Y-9144000D02*
X8432000Y-9144000D01*
D12*
X5646427Y-4360427D02*
X5646427Y-4275573D01*
X5561573Y-4275573D01*
X5561573Y-4360427D01*
X5646427Y-4360427D01*
X6146427Y-4360427D02*
X6146427Y-4275573D01*
X6061573Y-4275573D01*
X6061573Y-4360427D01*
X6146427Y-4360427D01*
X6646427Y-4360427D02*
X6646427Y-4275573D01*
X6561573Y-4275573D01*
X6561573Y-4360427D01*
X6646427Y-4360427D01*
D11*
X5335777Y-9714484D02*
X5335777Y-9514484D01*
X5335777Y-9514484D02*
X5383396Y-9514484D01*
X5383396Y-9514484D02*
X5411967Y-9524008D01*
X5411967Y-9524008D02*
X5431015Y-9543055D01*
X5431015Y-9543055D02*
X5440539Y-9562103D01*
X5440539Y-9562103D02*
X5450063Y-9600198D01*
X5450063Y-9600198D02*
X5450063Y-9628770D01*
X5450063Y-9628770D02*
X5440539Y-9666865D01*
X5440539Y-9666865D02*
X5431015Y-9685912D01*
X5431015Y-9685912D02*
X5411967Y-9704960D01*
X5411967Y-9704960D02*
X5383396Y-9714484D01*
X5383396Y-9714484D02*
X5335777Y-9714484D01*
X5535777Y-9714484D02*
X5535777Y-9581150D01*
X5535777Y-9619246D02*
X5545301Y-9600198D01*
X5545301Y-9600198D02*
X5554824Y-9590674D01*
X5554824Y-9590674D02*
X5573872Y-9581150D01*
X5573872Y-9581150D02*
X5592920Y-9581150D01*
X5659586Y-9714484D02*
X5659586Y-9581150D01*
X5659586Y-9514484D02*
X5650062Y-9524008D01*
X5650062Y-9524008D02*
X5659586Y-9533531D01*
X5659586Y-9533531D02*
X5669110Y-9524008D01*
X5669110Y-9524008D02*
X5659586Y-9514484D01*
X5659586Y-9514484D02*
X5659586Y-9533531D01*
X5783396Y-9714484D02*
X5764348Y-9704960D01*
X5764348Y-9704960D02*
X5754824Y-9685912D01*
X5754824Y-9685912D02*
X5754824Y-9514484D01*
X5888158Y-9714484D02*
X5869110Y-9704960D01*
X5869110Y-9704960D02*
X5859586Y-9685912D01*
X5859586Y-9685912D02*
X5859586Y-9514484D01*
X6116729Y-9714484D02*
X6116729Y-9514484D01*
X6116729Y-9514484D02*
X6183396Y-9657341D01*
X6183396Y-9657341D02*
X6250062Y-9514484D01*
X6250062Y-9514484D02*
X6250062Y-9714484D01*
X6431015Y-9714484D02*
X6431015Y-9609722D01*
X6431015Y-9609722D02*
X6421491Y-9590674D01*
X6421491Y-9590674D02*
X6402443Y-9581150D01*
X6402443Y-9581150D02*
X6364348Y-9581150D01*
X6364348Y-9581150D02*
X6345301Y-9590674D01*
X6431015Y-9704960D02*
X6411967Y-9714484D01*
X6411967Y-9714484D02*
X6364348Y-9714484D01*
X6364348Y-9714484D02*
X6345301Y-9704960D01*
X6345301Y-9704960D02*
X6335777Y-9685912D01*
X6335777Y-9685912D02*
X6335777Y-9666865D01*
X6335777Y-9666865D02*
X6345301Y-9647817D01*
X6345301Y-9647817D02*
X6364348Y-9638293D01*
X6364348Y-9638293D02*
X6411967Y-9638293D01*
X6411967Y-9638293D02*
X6431015Y-9628770D01*
X6526253Y-9581150D02*
X6526253Y-9781150D01*
X6526253Y-9590674D02*
X6545301Y-9581150D01*
X6545301Y-9581150D02*
X6583396Y-9581150D01*
X6583396Y-9581150D02*
X6602443Y-9590674D01*
X6602443Y-9590674D02*
X6611967Y-9600198D01*
X6611967Y-9600198D02*
X6621491Y-9619246D01*
X6621491Y-9619246D02*
X6621491Y-9676389D01*
X6621491Y-9676389D02*
X6611967Y-9695436D01*
X6611967Y-9695436D02*
X6602443Y-9704960D01*
X6602443Y-9704960D02*
X6583396Y-9714484D01*
X6583396Y-9714484D02*
X6545301Y-9714484D01*
X6545301Y-9714484D02*
X6526253Y-9704960D01*
X6707205Y-9695436D02*
X6716729Y-9704960D01*
X6716729Y-9704960D02*
X6707205Y-9714484D01*
X6707205Y-9714484D02*
X6697682Y-9704960D01*
X6697682Y-9704960D02*
X6707205Y-9695436D01*
X6707205Y-9695436D02*
X6707205Y-9714484D01*
X6707205Y-9590674D02*
X6716729Y-9600198D01*
X6716729Y-9600198D02*
X6707205Y-9609722D01*
X6707205Y-9609722D02*
X6697682Y-9600198D01*
X6697682Y-9600198D02*
X6707205Y-9590674D01*
X6707205Y-9590674D02*
X6707205Y-9609722D01*
D10*
X5035000Y-10023000D02*
X5075000Y-10063000D01*
X5075000Y-10023000D02*
X5035000Y-10063000D01*
D11*
X5373872Y-9934484D02*
X5392920Y-9934484D01*
X5392920Y-9934484D02*
X5411967Y-9944008D01*
X5411967Y-9944008D02*
X5421491Y-9953531D01*
X5421491Y-9953531D02*
X5431015Y-9972579D01*
X5431015Y-9972579D02*
X5440539Y-10010674D01*
X5440539Y-10010674D02*
X5440539Y-10058293D01*
X5440539Y-10058293D02*
X5431015Y-10096389D01*
X5431015Y-10096389D02*
X5421491Y-10115436D01*
X5421491Y-10115436D02*
X5411967Y-10124960D01*
X5411967Y-10124960D02*
X5392920Y-10134484D01*
X5392920Y-10134484D02*
X5373872Y-10134484D01*
X5373872Y-10134484D02*
X5354824Y-10124960D01*
X5354824Y-10124960D02*
X5345301Y-10115436D01*
X5345301Y-10115436D02*
X5335777Y-10096389D01*
X5335777Y-10096389D02*
X5326253Y-10058293D01*
X5326253Y-10058293D02*
X5326253Y-10010674D01*
X5326253Y-10010674D02*
X5335777Y-9972579D01*
X5335777Y-9972579D02*
X5345301Y-9953531D01*
X5345301Y-9953531D02*
X5354824Y-9944008D01*
X5354824Y-9944008D02*
X5373872Y-9934484D01*
X5526253Y-10115436D02*
X5535777Y-10124960D01*
X5535777Y-10124960D02*
X5526253Y-10134484D01*
X5526253Y-10134484D02*
X5516729Y-10124960D01*
X5516729Y-10124960D02*
X5526253Y-10115436D01*
X5526253Y-10115436D02*
X5526253Y-10134484D01*
X5707205Y-10001150D02*
X5707205Y-10134484D01*
X5659586Y-9924960D02*
X5611967Y-10067817D01*
X5611967Y-10067817D02*
X5735777Y-10067817D01*
X5850062Y-9934484D02*
X5869110Y-9934484D01*
X5869110Y-9934484D02*
X5888158Y-9944008D01*
X5888158Y-9944008D02*
X5897682Y-9953531D01*
X5897682Y-9953531D02*
X5907205Y-9972579D01*
X5907205Y-9972579D02*
X5916729Y-10010674D01*
X5916729Y-10010674D02*
X5916729Y-10058293D01*
X5916729Y-10058293D02*
X5907205Y-10096389D01*
X5907205Y-10096389D02*
X5897682Y-10115436D01*
X5897682Y-10115436D02*
X5888158Y-10124960D01*
X5888158Y-10124960D02*
X5869110Y-10134484D01*
X5869110Y-10134484D02*
X5850062Y-10134484D01*
X5850062Y-10134484D02*
X5831015Y-10124960D01*
X5831015Y-10124960D02*
X5821491Y-10115436D01*
X5821491Y-10115436D02*
X5811967Y-10096389D01*
X5811967Y-10096389D02*
X5802443Y-10058293D01*
X5802443Y-10058293D02*
X5802443Y-10010674D01*
X5802443Y-10010674D02*
X5811967Y-9972579D01*
X5811967Y-9972579D02*
X5821491Y-9953531D01*
X5821491Y-9953531D02*
X5831015Y-9944008D01*
X5831015Y-9944008D02*
X5850062Y-9934484D01*
X6040539Y-9934484D02*
X6059586Y-9934484D01*
X6059586Y-9934484D02*
X6078634Y-9944008D01*
X6078634Y-9944008D02*
X6088158Y-9953531D01*
X6088158Y-9953531D02*
X6097682Y-9972579D01*
X6097682Y-9972579D02*
X6107205Y-10010674D01*
X6107205Y-10010674D02*
X6107205Y-10058293D01*
X6107205Y-10058293D02*
X6097682Y-10096389D01*
X6097682Y-10096389D02*
X6088158Y-10115436D01*
X6088158Y-10115436D02*
X6078634Y-10124960D01*
X6078634Y-10124960D02*
X6059586Y-10134484D01*
X6059586Y-10134484D02*
X6040539Y-10134484D01*
X6040539Y-10134484D02*
X6021491Y-10124960D01*
X6021491Y-10124960D02*
X6011967Y-10115436D01*
X6011967Y-10115436D02*
X6002443Y-10096389D01*
X6002443Y-10096389D02*
X5992920Y-10058293D01*
X5992920Y-10058293D02*
X5992920Y-10010674D01*
X5992920Y-10010674D02*
X6002443Y-9972579D01*
X6002443Y-9972579D02*
X6011967Y-9953531D01*
X6011967Y-9953531D02*
X6021491Y-9944008D01*
X6021491Y-9944008D02*
X6040539Y-9934484D01*
X6192920Y-10134484D02*
X6192920Y-10001150D01*
X6192920Y-10020198D02*
X6202443Y-10010674D01*
X6202443Y-10010674D02*
X6221491Y-10001150D01*
X6221491Y-10001150D02*
X6250063Y-10001150D01*
X6250063Y-10001150D02*
X6269110Y-10010674D01*
X6269110Y-10010674D02*
X6278634Y-10029722D01*
X6278634Y-10029722D02*
X6278634Y-10134484D01*
X6278634Y-10029722D02*
X6288158Y-10010674D01*
X6288158Y-10010674D02*
X6307205Y-10001150D01*
X6307205Y-10001150D02*
X6335777Y-10001150D01*
X6335777Y-10001150D02*
X6354824Y-10010674D01*
X6354824Y-10010674D02*
X6364348Y-10029722D01*
X6364348Y-10029722D02*
X6364348Y-10134484D01*
X6459586Y-10134484D02*
X6459586Y-10001150D01*
X6459586Y-10020198D02*
X6469110Y-10010674D01*
X6469110Y-10010674D02*
X6488158Y-10001150D01*
X6488158Y-10001150D02*
X6516729Y-10001150D01*
X6516729Y-10001150D02*
X6535777Y-10010674D01*
X6535777Y-10010674D02*
X6545301Y-10029722D01*
X6545301Y-10029722D02*
X6545301Y-10134484D01*
X6545301Y-10029722D02*
X6554824Y-10010674D01*
X6554824Y-10010674D02*
X6573872Y-10001150D01*
X6573872Y-10001150D02*
X6602443Y-10001150D01*
X6602443Y-10001150D02*
X6621491Y-10010674D01*
X6621491Y-10010674D02*
X6631015Y-10029722D01*
X6631015Y-10029722D02*
X6631015Y-10134484D01*
X7021491Y-9924960D02*
X6850063Y-10182103D01*
X7278634Y-9934484D02*
X7297682Y-9934484D01*
X7297682Y-9934484D02*
X7316729Y-9944008D01*
X7316729Y-9944008D02*
X7326253Y-9953531D01*
X7326253Y-9953531D02*
X7335777Y-9972579D01*
X7335777Y-9972579D02*
X7345301Y-10010674D01*
X7345301Y-10010674D02*
X7345301Y-10058293D01*
X7345301Y-10058293D02*
X7335777Y-10096389D01*
X7335777Y-10096389D02*
X7326253Y-10115436D01*
X7326253Y-10115436D02*
X7316729Y-10124960D01*
X7316729Y-10124960D02*
X7297682Y-10134484D01*
X7297682Y-10134484D02*
X7278634Y-10134484D01*
X7278634Y-10134484D02*
X7259586Y-10124960D01*
X7259586Y-10124960D02*
X7250063Y-10115436D01*
X7250063Y-10115436D02*
X7240539Y-10096389D01*
X7240539Y-10096389D02*
X7231015Y-10058293D01*
X7231015Y-10058293D02*
X7231015Y-10010674D01*
X7231015Y-10010674D02*
X7240539Y-9972579D01*
X7240539Y-9972579D02*
X7250063Y-9953531D01*
X7250063Y-9953531D02*
X7259586Y-9944008D01*
X7259586Y-9944008D02*
X7278634Y-9934484D01*
X7431015Y-10115436D02*
X7440539Y-10124960D01*
X7440539Y-10124960D02*
X7431015Y-10134484D01*
X7431015Y-10134484D02*
X7421491Y-10124960D01*
X7421491Y-10124960D02*
X7431015Y-10115436D01*
X7431015Y-10115436D02*
X7431015Y-10134484D01*
X7564348Y-9934484D02*
X7583396Y-9934484D01*
X7583396Y-9934484D02*
X7602444Y-9944008D01*
X7602444Y-9944008D02*
X7611967Y-9953531D01*
X7611967Y-9953531D02*
X7621491Y-9972579D01*
X7621491Y-9972579D02*
X7631015Y-10010674D01*
X7631015Y-10010674D02*
X7631015Y-10058293D01*
X7631015Y-10058293D02*
X7621491Y-10096389D01*
X7621491Y-10096389D02*
X7611967Y-10115436D01*
X7611967Y-10115436D02*
X7602444Y-10124960D01*
X7602444Y-10124960D02*
X7583396Y-10134484D01*
X7583396Y-10134484D02*
X7564348Y-10134484D01*
X7564348Y-10134484D02*
X7545301Y-10124960D01*
X7545301Y-10124960D02*
X7535777Y-10115436D01*
X7535777Y-10115436D02*
X7526253Y-10096389D01*
X7526253Y-10096389D02*
X7516729Y-10058293D01*
X7516729Y-10058293D02*
X7516729Y-10010674D01*
X7516729Y-10010674D02*
X7526253Y-9972579D01*
X7526253Y-9972579D02*
X7535777Y-9953531D01*
X7535777Y-9953531D02*
X7545301Y-9944008D01*
X7545301Y-9944008D02*
X7564348Y-9934484D01*
X7821491Y-10134484D02*
X7707206Y-10134484D01*
X7764348Y-10134484D02*
X7764348Y-9934484D01*
X7764348Y-9934484D02*
X7745301Y-9963055D01*
X7745301Y-9963055D02*
X7726253Y-9982103D01*
X7726253Y-9982103D02*
X7707206Y-9991627D01*
X8002444Y-9934484D02*
X7907206Y-9934484D01*
X7907206Y-9934484D02*
X7897682Y-10029722D01*
X7897682Y-10029722D02*
X7907206Y-10020198D01*
X7907206Y-10020198D02*
X7926253Y-10010674D01*
X7926253Y-10010674D02*
X7973872Y-10010674D01*
X7973872Y-10010674D02*
X7992920Y-10020198D01*
X7992920Y-10020198D02*
X8002444Y-10029722D01*
X8002444Y-10029722D02*
X8011967Y-10048770D01*
X8011967Y-10048770D02*
X8011967Y-10096389D01*
X8011967Y-10096389D02*
X8002444Y-10115436D01*
X8002444Y-10115436D02*
X7992920Y-10124960D01*
X7992920Y-10124960D02*
X7973872Y-10134484D01*
X7973872Y-10134484D02*
X7926253Y-10134484D01*
X7926253Y-10134484D02*
X7907206Y-10124960D01*
X7907206Y-10124960D02*
X7897682Y-10115436D01*
X8078634Y-9934484D02*
X8211967Y-9934484D01*
X8211967Y-9934484D02*
X8126253Y-10134484D01*
X8278634Y-9934484D02*
X8278634Y-9972579D01*
X8354825Y-9934484D02*
X8354825Y-9972579D01*
X8650063Y-10210674D02*
X8640539Y-10201150D01*
X8640539Y-10201150D02*
X8621491Y-10172579D01*
X8621491Y-10172579D02*
X8611968Y-10153531D01*
X8611968Y-10153531D02*
X8602444Y-10124960D01*
X8602444Y-10124960D02*
X8592920Y-10077341D01*
X8592920Y-10077341D02*
X8592920Y-10039246D01*
X8592920Y-10039246D02*
X8602444Y-9991627D01*
X8602444Y-9991627D02*
X8611968Y-9963055D01*
X8611968Y-9963055D02*
X8621491Y-9944008D01*
X8621491Y-9944008D02*
X8640539Y-9915436D01*
X8640539Y-9915436D02*
X8650063Y-9905912D01*
X8831015Y-10134484D02*
X8716730Y-10134484D01*
X8773872Y-10134484D02*
X8773872Y-9934484D01*
X8773872Y-9934484D02*
X8754825Y-9963055D01*
X8754825Y-9963055D02*
X8735777Y-9982103D01*
X8735777Y-9982103D02*
X8716730Y-9991627D01*
X9069111Y-10134484D02*
X9069111Y-9934484D01*
X9154825Y-10134484D02*
X9154825Y-10029722D01*
X9154825Y-10029722D02*
X9145301Y-10010674D01*
X9145301Y-10010674D02*
X9126253Y-10001150D01*
X9126253Y-10001150D02*
X9097682Y-10001150D01*
X9097682Y-10001150D02*
X9078634Y-10010674D01*
X9078634Y-10010674D02*
X9069111Y-10020198D01*
X9278634Y-10134484D02*
X9259587Y-10124960D01*
X9259587Y-10124960D02*
X9250063Y-10115436D01*
X9250063Y-10115436D02*
X9240539Y-10096389D01*
X9240539Y-10096389D02*
X9240539Y-10039246D01*
X9240539Y-10039246D02*
X9250063Y-10020198D01*
X9250063Y-10020198D02*
X9259587Y-10010674D01*
X9259587Y-10010674D02*
X9278634Y-10001150D01*
X9278634Y-10001150D02*
X9307206Y-10001150D01*
X9307206Y-10001150D02*
X9326253Y-10010674D01*
X9326253Y-10010674D02*
X9335777Y-10020198D01*
X9335777Y-10020198D02*
X9345301Y-10039246D01*
X9345301Y-10039246D02*
X9345301Y-10096389D01*
X9345301Y-10096389D02*
X9335777Y-10115436D01*
X9335777Y-10115436D02*
X9326253Y-10124960D01*
X9326253Y-10124960D02*
X9307206Y-10134484D01*
X9307206Y-10134484D02*
X9278634Y-10134484D01*
X9459587Y-10134484D02*
X9440539Y-10124960D01*
X9440539Y-10124960D02*
X9431015Y-10105912D01*
X9431015Y-10105912D02*
X9431015Y-9934484D01*
X9611968Y-10124960D02*
X9592920Y-10134484D01*
X9592920Y-10134484D02*
X9554825Y-10134484D01*
X9554825Y-10134484D02*
X9535777Y-10124960D01*
X9535777Y-10124960D02*
X9526253Y-10105912D01*
X9526253Y-10105912D02*
X9526253Y-10029722D01*
X9526253Y-10029722D02*
X9535777Y-10010674D01*
X9535777Y-10010674D02*
X9554825Y-10001150D01*
X9554825Y-10001150D02*
X9592920Y-10001150D01*
X9592920Y-10001150D02*
X9611968Y-10010674D01*
X9611968Y-10010674D02*
X9621492Y-10029722D01*
X9621492Y-10029722D02*
X9621492Y-10048770D01*
X9621492Y-10048770D02*
X9526253Y-10067817D01*
X9688158Y-10210674D02*
X9697682Y-10201150D01*
X9697682Y-10201150D02*
X9716730Y-10172579D01*
X9716730Y-10172579D02*
X9726253Y-10153531D01*
X9726253Y-10153531D02*
X9735777Y-10124960D01*
X9735777Y-10124960D02*
X9745301Y-10077341D01*
X9745301Y-10077341D02*
X9745301Y-10039246D01*
X9745301Y-10039246D02*
X9735777Y-9991627D01*
X9735777Y-9991627D02*
X9726253Y-9963055D01*
X9726253Y-9963055D02*
X9716730Y-9944008D01*
X9716730Y-9944008D02*
X9697682Y-9915436D01*
X9697682Y-9915436D02*
X9688158Y-9905912D01*
D10*
X5075000Y-10307000D02*
G75*
G03*
X5075000Y-10307000I-35000J0D01*
G01*
D11*
X5373872Y-10198484D02*
X5392920Y-10198484D01*
X5392920Y-10198484D02*
X5411967Y-10208008D01*
X5411967Y-10208008D02*
X5421491Y-10217531D01*
X5421491Y-10217531D02*
X5431015Y-10236579D01*
X5431015Y-10236579D02*
X5440539Y-10274674D01*
X5440539Y-10274674D02*
X5440539Y-10322293D01*
X5440539Y-10322293D02*
X5431015Y-10360389D01*
X5431015Y-10360389D02*
X5421491Y-10379436D01*
X5421491Y-10379436D02*
X5411967Y-10388960D01*
X5411967Y-10388960D02*
X5392920Y-10398484D01*
X5392920Y-10398484D02*
X5373872Y-10398484D01*
X5373872Y-10398484D02*
X5354824Y-10388960D01*
X5354824Y-10388960D02*
X5345301Y-10379436D01*
X5345301Y-10379436D02*
X5335777Y-10360389D01*
X5335777Y-10360389D02*
X5326253Y-10322293D01*
X5326253Y-10322293D02*
X5326253Y-10274674D01*
X5326253Y-10274674D02*
X5335777Y-10236579D01*
X5335777Y-10236579D02*
X5345301Y-10217531D01*
X5345301Y-10217531D02*
X5354824Y-10208008D01*
X5354824Y-10208008D02*
X5373872Y-10198484D01*
X5526253Y-10379436D02*
X5535777Y-10388960D01*
X5535777Y-10388960D02*
X5526253Y-10398484D01*
X5526253Y-10398484D02*
X5516729Y-10388960D01*
X5516729Y-10388960D02*
X5526253Y-10379436D01*
X5526253Y-10379436D02*
X5526253Y-10398484D01*
X5602443Y-10198484D02*
X5735777Y-10198484D01*
X5735777Y-10198484D02*
X5650062Y-10398484D01*
X5850062Y-10198484D02*
X5869110Y-10198484D01*
X5869110Y-10198484D02*
X5888158Y-10208008D01*
X5888158Y-10208008D02*
X5897682Y-10217531D01*
X5897682Y-10217531D02*
X5907205Y-10236579D01*
X5907205Y-10236579D02*
X5916729Y-10274674D01*
X5916729Y-10274674D02*
X5916729Y-10322293D01*
X5916729Y-10322293D02*
X5907205Y-10360389D01*
X5907205Y-10360389D02*
X5897682Y-10379436D01*
X5897682Y-10379436D02*
X5888158Y-10388960D01*
X5888158Y-10388960D02*
X5869110Y-10398484D01*
X5869110Y-10398484D02*
X5850062Y-10398484D01*
X5850062Y-10398484D02*
X5831015Y-10388960D01*
X5831015Y-10388960D02*
X5821491Y-10379436D01*
X5821491Y-10379436D02*
X5811967Y-10360389D01*
X5811967Y-10360389D02*
X5802443Y-10322293D01*
X5802443Y-10322293D02*
X5802443Y-10274674D01*
X5802443Y-10274674D02*
X5811967Y-10236579D01*
X5811967Y-10236579D02*
X5821491Y-10217531D01*
X5821491Y-10217531D02*
X5831015Y-10208008D01*
X5831015Y-10208008D02*
X5850062Y-10198484D01*
X6040539Y-10198484D02*
X6059586Y-10198484D01*
X6059586Y-10198484D02*
X6078634Y-10208008D01*
X6078634Y-10208008D02*
X6088158Y-10217531D01*
X6088158Y-10217531D02*
X6097682Y-10236579D01*
X6097682Y-10236579D02*
X6107205Y-10274674D01*
X6107205Y-10274674D02*
X6107205Y-10322293D01*
X6107205Y-10322293D02*
X6097682Y-10360389D01*
X6097682Y-10360389D02*
X6088158Y-10379436D01*
X6088158Y-10379436D02*
X6078634Y-10388960D01*
X6078634Y-10388960D02*
X6059586Y-10398484D01*
X6059586Y-10398484D02*
X6040539Y-10398484D01*
X6040539Y-10398484D02*
X6021491Y-10388960D01*
X6021491Y-10388960D02*
X6011967Y-10379436D01*
X6011967Y-10379436D02*
X6002443Y-10360389D01*
X6002443Y-10360389D02*
X5992920Y-10322293D01*
X5992920Y-10322293D02*
X5992920Y-10274674D01*
X5992920Y-10274674D02*
X6002443Y-10236579D01*
X6002443Y-10236579D02*
X6011967Y-10217531D01*
X6011967Y-10217531D02*
X6021491Y-10208008D01*
X6021491Y-10208008D02*
X6040539Y-10198484D01*
X6192920Y-10398484D02*
X6192920Y-10265150D01*
X6192920Y-10284198D02*
X6202443Y-10274674D01*
X6202443Y-10274674D02*
X6221491Y-10265150D01*
X6221491Y-10265150D02*
X6250063Y-10265150D01*
X6250063Y-10265150D02*
X6269110Y-10274674D01*
X6269110Y-10274674D02*
X6278634Y-10293722D01*
X6278634Y-10293722D02*
X6278634Y-10398484D01*
X6278634Y-10293722D02*
X6288158Y-10274674D01*
X6288158Y-10274674D02*
X6307205Y-10265150D01*
X6307205Y-10265150D02*
X6335777Y-10265150D01*
X6335777Y-10265150D02*
X6354824Y-10274674D01*
X6354824Y-10274674D02*
X6364348Y-10293722D01*
X6364348Y-10293722D02*
X6364348Y-10398484D01*
X6459586Y-10398484D02*
X6459586Y-10265150D01*
X6459586Y-10284198D02*
X6469110Y-10274674D01*
X6469110Y-10274674D02*
X6488158Y-10265150D01*
X6488158Y-10265150D02*
X6516729Y-10265150D01*
X6516729Y-10265150D02*
X6535777Y-10274674D01*
X6535777Y-10274674D02*
X6545301Y-10293722D01*
X6545301Y-10293722D02*
X6545301Y-10398484D01*
X6545301Y-10293722D02*
X6554824Y-10274674D01*
X6554824Y-10274674D02*
X6573872Y-10265150D01*
X6573872Y-10265150D02*
X6602443Y-10265150D01*
X6602443Y-10265150D02*
X6621491Y-10274674D01*
X6621491Y-10274674D02*
X6631015Y-10293722D01*
X6631015Y-10293722D02*
X6631015Y-10398484D01*
X7021491Y-10188960D02*
X6850063Y-10446103D01*
X7278634Y-10198484D02*
X7297682Y-10198484D01*
X7297682Y-10198484D02*
X7316729Y-10208008D01*
X7316729Y-10208008D02*
X7326253Y-10217531D01*
X7326253Y-10217531D02*
X7335777Y-10236579D01*
X7335777Y-10236579D02*
X7345301Y-10274674D01*
X7345301Y-10274674D02*
X7345301Y-10322293D01*
X7345301Y-10322293D02*
X7335777Y-10360389D01*
X7335777Y-10360389D02*
X7326253Y-10379436D01*
X7326253Y-10379436D02*
X7316729Y-10388960D01*
X7316729Y-10388960D02*
X7297682Y-10398484D01*
X7297682Y-10398484D02*
X7278634Y-10398484D01*
X7278634Y-10398484D02*
X7259586Y-10388960D01*
X7259586Y-10388960D02*
X7250063Y-10379436D01*
X7250063Y-10379436D02*
X7240539Y-10360389D01*
X7240539Y-10360389D02*
X7231015Y-10322293D01*
X7231015Y-10322293D02*
X7231015Y-10274674D01*
X7231015Y-10274674D02*
X7240539Y-10236579D01*
X7240539Y-10236579D02*
X7250063Y-10217531D01*
X7250063Y-10217531D02*
X7259586Y-10208008D01*
X7259586Y-10208008D02*
X7278634Y-10198484D01*
X7431015Y-10379436D02*
X7440539Y-10388960D01*
X7440539Y-10388960D02*
X7431015Y-10398484D01*
X7431015Y-10398484D02*
X7421491Y-10388960D01*
X7421491Y-10388960D02*
X7431015Y-10379436D01*
X7431015Y-10379436D02*
X7431015Y-10398484D01*
X7564348Y-10198484D02*
X7583396Y-10198484D01*
X7583396Y-10198484D02*
X7602444Y-10208008D01*
X7602444Y-10208008D02*
X7611967Y-10217531D01*
X7611967Y-10217531D02*
X7621491Y-10236579D01*
X7621491Y-10236579D02*
X7631015Y-10274674D01*
X7631015Y-10274674D02*
X7631015Y-10322293D01*
X7631015Y-10322293D02*
X7621491Y-10360389D01*
X7621491Y-10360389D02*
X7611967Y-10379436D01*
X7611967Y-10379436D02*
X7602444Y-10388960D01*
X7602444Y-10388960D02*
X7583396Y-10398484D01*
X7583396Y-10398484D02*
X7564348Y-10398484D01*
X7564348Y-10398484D02*
X7545301Y-10388960D01*
X7545301Y-10388960D02*
X7535777Y-10379436D01*
X7535777Y-10379436D02*
X7526253Y-10360389D01*
X7526253Y-10360389D02*
X7516729Y-10322293D01*
X7516729Y-10322293D02*
X7516729Y-10274674D01*
X7516729Y-10274674D02*
X7526253Y-10236579D01*
X7526253Y-10236579D02*
X7535777Y-10217531D01*
X7535777Y-10217531D02*
X7545301Y-10208008D01*
X7545301Y-10208008D02*
X7564348Y-10198484D01*
X7707206Y-10217531D02*
X7716729Y-10208008D01*
X7716729Y-10208008D02*
X7735777Y-10198484D01*
X7735777Y-10198484D02*
X7783396Y-10198484D01*
X7783396Y-10198484D02*
X7802444Y-10208008D01*
X7802444Y-10208008D02*
X7811967Y-10217531D01*
X7811967Y-10217531D02*
X7821491Y-10236579D01*
X7821491Y-10236579D02*
X7821491Y-10255627D01*
X7821491Y-10255627D02*
X7811967Y-10284198D01*
X7811967Y-10284198D02*
X7697682Y-10398484D01*
X7697682Y-10398484D02*
X7821491Y-10398484D01*
X7888158Y-10198484D02*
X8021491Y-10198484D01*
X8021491Y-10198484D02*
X7935777Y-10398484D01*
X8183396Y-10198484D02*
X8145301Y-10198484D01*
X8145301Y-10198484D02*
X8126253Y-10208008D01*
X8126253Y-10208008D02*
X8116729Y-10217531D01*
X8116729Y-10217531D02*
X8097682Y-10246103D01*
X8097682Y-10246103D02*
X8088158Y-10284198D01*
X8088158Y-10284198D02*
X8088158Y-10360389D01*
X8088158Y-10360389D02*
X8097682Y-10379436D01*
X8097682Y-10379436D02*
X8107206Y-10388960D01*
X8107206Y-10388960D02*
X8126253Y-10398484D01*
X8126253Y-10398484D02*
X8164348Y-10398484D01*
X8164348Y-10398484D02*
X8183396Y-10388960D01*
X8183396Y-10388960D02*
X8192920Y-10379436D01*
X8192920Y-10379436D02*
X8202444Y-10360389D01*
X8202444Y-10360389D02*
X8202444Y-10312770D01*
X8202444Y-10312770D02*
X8192920Y-10293722D01*
X8192920Y-10293722D02*
X8183396Y-10284198D01*
X8183396Y-10284198D02*
X8164348Y-10274674D01*
X8164348Y-10274674D02*
X8126253Y-10274674D01*
X8126253Y-10274674D02*
X8107206Y-10284198D01*
X8107206Y-10284198D02*
X8097682Y-10293722D01*
X8097682Y-10293722D02*
X8088158Y-10312770D01*
X8278634Y-10198484D02*
X8278634Y-10236579D01*
X8354825Y-10198484D02*
X8354825Y-10236579D01*
X8650063Y-10474674D02*
X8640539Y-10465150D01*
X8640539Y-10465150D02*
X8621491Y-10436579D01*
X8621491Y-10436579D02*
X8611968Y-10417531D01*
X8611968Y-10417531D02*
X8602444Y-10388960D01*
X8602444Y-10388960D02*
X8592920Y-10341341D01*
X8592920Y-10341341D02*
X8592920Y-10303246D01*
X8592920Y-10303246D02*
X8602444Y-10255627D01*
X8602444Y-10255627D02*
X8611968Y-10227055D01*
X8611968Y-10227055D02*
X8621491Y-10208008D01*
X8621491Y-10208008D02*
X8640539Y-10179436D01*
X8640539Y-10179436D02*
X8650063Y-10169912D01*
X8716730Y-10217531D02*
X8726253Y-10208008D01*
X8726253Y-10208008D02*
X8745301Y-10198484D01*
X8745301Y-10198484D02*
X8792920Y-10198484D01*
X8792920Y-10198484D02*
X8811968Y-10208008D01*
X8811968Y-10208008D02*
X8821491Y-10217531D01*
X8821491Y-10217531D02*
X8831015Y-10236579D01*
X8831015Y-10236579D02*
X8831015Y-10255627D01*
X8831015Y-10255627D02*
X8821491Y-10284198D01*
X8821491Y-10284198D02*
X8707206Y-10398484D01*
X8707206Y-10398484D02*
X8831015Y-10398484D01*
X9069111Y-10398484D02*
X9069111Y-10198484D01*
X9154825Y-10398484D02*
X9154825Y-10293722D01*
X9154825Y-10293722D02*
X9145301Y-10274674D01*
X9145301Y-10274674D02*
X9126253Y-10265150D01*
X9126253Y-10265150D02*
X9097682Y-10265150D01*
X9097682Y-10265150D02*
X9078634Y-10274674D01*
X9078634Y-10274674D02*
X9069111Y-10284198D01*
X9278634Y-10398484D02*
X9259587Y-10388960D01*
X9259587Y-10388960D02*
X9250063Y-10379436D01*
X9250063Y-10379436D02*
X9240539Y-10360389D01*
X9240539Y-10360389D02*
X9240539Y-10303246D01*
X9240539Y-10303246D02*
X9250063Y-10284198D01*
X9250063Y-10284198D02*
X9259587Y-10274674D01*
X9259587Y-10274674D02*
X9278634Y-10265150D01*
X9278634Y-10265150D02*
X9307206Y-10265150D01*
X9307206Y-10265150D02*
X9326253Y-10274674D01*
X9326253Y-10274674D02*
X9335777Y-10284198D01*
X9335777Y-10284198D02*
X9345301Y-10303246D01*
X9345301Y-10303246D02*
X9345301Y-10360389D01*
X9345301Y-10360389D02*
X9335777Y-10379436D01*
X9335777Y-10379436D02*
X9326253Y-10388960D01*
X9326253Y-10388960D02*
X9307206Y-10398484D01*
X9307206Y-10398484D02*
X9278634Y-10398484D01*
X9459587Y-10398484D02*
X9440539Y-10388960D01*
X9440539Y-10388960D02*
X9431015Y-10369912D01*
X9431015Y-10369912D02*
X9431015Y-10198484D01*
X9611968Y-10388960D02*
X9592920Y-10398484D01*
X9592920Y-10398484D02*
X9554825Y-10398484D01*
X9554825Y-10398484D02*
X9535777Y-10388960D01*
X9535777Y-10388960D02*
X9526253Y-10369912D01*
X9526253Y-10369912D02*
X9526253Y-10293722D01*
X9526253Y-10293722D02*
X9535777Y-10274674D01*
X9535777Y-10274674D02*
X9554825Y-10265150D01*
X9554825Y-10265150D02*
X9592920Y-10265150D01*
X9592920Y-10265150D02*
X9611968Y-10274674D01*
X9611968Y-10274674D02*
X9621492Y-10293722D01*
X9621492Y-10293722D02*
X9621492Y-10312770D01*
X9621492Y-10312770D02*
X9526253Y-10331817D01*
X9697682Y-10388960D02*
X9716730Y-10398484D01*
X9716730Y-10398484D02*
X9754825Y-10398484D01*
X9754825Y-10398484D02*
X9773873Y-10388960D01*
X9773873Y-10388960D02*
X9783396Y-10369912D01*
X9783396Y-10369912D02*
X9783396Y-10360389D01*
X9783396Y-10360389D02*
X9773873Y-10341341D01*
X9773873Y-10341341D02*
X9754825Y-10331817D01*
X9754825Y-10331817D02*
X9726253Y-10331817D01*
X9726253Y-10331817D02*
X9707206Y-10322293D01*
X9707206Y-10322293D02*
X9697682Y-10303246D01*
X9697682Y-10303246D02*
X9697682Y-10293722D01*
X9697682Y-10293722D02*
X9707206Y-10274674D01*
X9707206Y-10274674D02*
X9726253Y-10265150D01*
X9726253Y-10265150D02*
X9754825Y-10265150D01*
X9754825Y-10265150D02*
X9773873Y-10274674D01*
X9850063Y-10474674D02*
X9859587Y-10465150D01*
X9859587Y-10465150D02*
X9878634Y-10436579D01*
X9878634Y-10436579D02*
X9888158Y-10417531D01*
X9888158Y-10417531D02*
X9897682Y-10388960D01*
X9897682Y-10388960D02*
X9907206Y-10341341D01*
X9907206Y-10341341D02*
X9907206Y-10303246D01*
X9907206Y-10303246D02*
X9897682Y-10255627D01*
X9897682Y-10255627D02*
X9888158Y-10227055D01*
X9888158Y-10227055D02*
X9878634Y-10208008D01*
X9878634Y-10208008D02*
X9859587Y-10179436D01*
X9859587Y-10179436D02*
X9850063Y-10169912D01*
D10*
X5025000Y-10521000D02*
X5025000Y-10621000D01*
X4975000Y-10571000D02*
X5075000Y-10571000D01*
D11*
X5440539Y-10662484D02*
X5326253Y-10662484D01*
X5383396Y-10662484D02*
X5383396Y-10462484D01*
X5383396Y-10462484D02*
X5364348Y-10491055D01*
X5364348Y-10491055D02*
X5345301Y-10510103D01*
X5345301Y-10510103D02*
X5326253Y-10519627D01*
X5526253Y-10643436D02*
X5535777Y-10652960D01*
X5535777Y-10652960D02*
X5526253Y-10662484D01*
X5526253Y-10662484D02*
X5516729Y-10652960D01*
X5516729Y-10652960D02*
X5526253Y-10643436D01*
X5526253Y-10643436D02*
X5526253Y-10662484D01*
X5659586Y-10462484D02*
X5678634Y-10462484D01*
X5678634Y-10462484D02*
X5697682Y-10472008D01*
X5697682Y-10472008D02*
X5707205Y-10481531D01*
X5707205Y-10481531D02*
X5716729Y-10500579D01*
X5716729Y-10500579D02*
X5726253Y-10538674D01*
X5726253Y-10538674D02*
X5726253Y-10586293D01*
X5726253Y-10586293D02*
X5716729Y-10624389D01*
X5716729Y-10624389D02*
X5707205Y-10643436D01*
X5707205Y-10643436D02*
X5697682Y-10652960D01*
X5697682Y-10652960D02*
X5678634Y-10662484D01*
X5678634Y-10662484D02*
X5659586Y-10662484D01*
X5659586Y-10662484D02*
X5640539Y-10652960D01*
X5640539Y-10652960D02*
X5631015Y-10643436D01*
X5631015Y-10643436D02*
X5621491Y-10624389D01*
X5621491Y-10624389D02*
X5611967Y-10586293D01*
X5611967Y-10586293D02*
X5611967Y-10538674D01*
X5611967Y-10538674D02*
X5621491Y-10500579D01*
X5621491Y-10500579D02*
X5631015Y-10481531D01*
X5631015Y-10481531D02*
X5640539Y-10472008D01*
X5640539Y-10472008D02*
X5659586Y-10462484D01*
X5850062Y-10462484D02*
X5869110Y-10462484D01*
X5869110Y-10462484D02*
X5888158Y-10472008D01*
X5888158Y-10472008D02*
X5897682Y-10481531D01*
X5897682Y-10481531D02*
X5907205Y-10500579D01*
X5907205Y-10500579D02*
X5916729Y-10538674D01*
X5916729Y-10538674D02*
X5916729Y-10586293D01*
X5916729Y-10586293D02*
X5907205Y-10624389D01*
X5907205Y-10624389D02*
X5897682Y-10643436D01*
X5897682Y-10643436D02*
X5888158Y-10652960D01*
X5888158Y-10652960D02*
X5869110Y-10662484D01*
X5869110Y-10662484D02*
X5850062Y-10662484D01*
X5850062Y-10662484D02*
X5831015Y-10652960D01*
X5831015Y-10652960D02*
X5821491Y-10643436D01*
X5821491Y-10643436D02*
X5811967Y-10624389D01*
X5811967Y-10624389D02*
X5802443Y-10586293D01*
X5802443Y-10586293D02*
X5802443Y-10538674D01*
X5802443Y-10538674D02*
X5811967Y-10500579D01*
X5811967Y-10500579D02*
X5821491Y-10481531D01*
X5821491Y-10481531D02*
X5831015Y-10472008D01*
X5831015Y-10472008D02*
X5850062Y-10462484D01*
X6040539Y-10462484D02*
X6059586Y-10462484D01*
X6059586Y-10462484D02*
X6078634Y-10472008D01*
X6078634Y-10472008D02*
X6088158Y-10481531D01*
X6088158Y-10481531D02*
X6097682Y-10500579D01*
X6097682Y-10500579D02*
X6107205Y-10538674D01*
X6107205Y-10538674D02*
X6107205Y-10586293D01*
X6107205Y-10586293D02*
X6097682Y-10624389D01*
X6097682Y-10624389D02*
X6088158Y-10643436D01*
X6088158Y-10643436D02*
X6078634Y-10652960D01*
X6078634Y-10652960D02*
X6059586Y-10662484D01*
X6059586Y-10662484D02*
X6040539Y-10662484D01*
X6040539Y-10662484D02*
X6021491Y-10652960D01*
X6021491Y-10652960D02*
X6011967Y-10643436D01*
X6011967Y-10643436D02*
X6002443Y-10624389D01*
X6002443Y-10624389D02*
X5992920Y-10586293D01*
X5992920Y-10586293D02*
X5992920Y-10538674D01*
X5992920Y-10538674D02*
X6002443Y-10500579D01*
X6002443Y-10500579D02*
X6011967Y-10481531D01*
X6011967Y-10481531D02*
X6021491Y-10472008D01*
X6021491Y-10472008D02*
X6040539Y-10462484D01*
X6192920Y-10662484D02*
X6192920Y-10529150D01*
X6192920Y-10548198D02*
X6202443Y-10538674D01*
X6202443Y-10538674D02*
X6221491Y-10529150D01*
X6221491Y-10529150D02*
X6250063Y-10529150D01*
X6250063Y-10529150D02*
X6269110Y-10538674D01*
X6269110Y-10538674D02*
X6278634Y-10557722D01*
X6278634Y-10557722D02*
X6278634Y-10662484D01*
X6278634Y-10557722D02*
X6288158Y-10538674D01*
X6288158Y-10538674D02*
X6307205Y-10529150D01*
X6307205Y-10529150D02*
X6335777Y-10529150D01*
X6335777Y-10529150D02*
X6354824Y-10538674D01*
X6354824Y-10538674D02*
X6364348Y-10557722D01*
X6364348Y-10557722D02*
X6364348Y-10662484D01*
X6459586Y-10662484D02*
X6459586Y-10529150D01*
X6459586Y-10548198D02*
X6469110Y-10538674D01*
X6469110Y-10538674D02*
X6488158Y-10529150D01*
X6488158Y-10529150D02*
X6516729Y-10529150D01*
X6516729Y-10529150D02*
X6535777Y-10538674D01*
X6535777Y-10538674D02*
X6545301Y-10557722D01*
X6545301Y-10557722D02*
X6545301Y-10662484D01*
X6545301Y-10557722D02*
X6554824Y-10538674D01*
X6554824Y-10538674D02*
X6573872Y-10529150D01*
X6573872Y-10529150D02*
X6602443Y-10529150D01*
X6602443Y-10529150D02*
X6621491Y-10538674D01*
X6621491Y-10538674D02*
X6631015Y-10557722D01*
X6631015Y-10557722D02*
X6631015Y-10662484D01*
X7021491Y-10452960D02*
X6850063Y-10710103D01*
X7278634Y-10462484D02*
X7297682Y-10462484D01*
X7297682Y-10462484D02*
X7316729Y-10472008D01*
X7316729Y-10472008D02*
X7326253Y-10481531D01*
X7326253Y-10481531D02*
X7335777Y-10500579D01*
X7335777Y-10500579D02*
X7345301Y-10538674D01*
X7345301Y-10538674D02*
X7345301Y-10586293D01*
X7345301Y-10586293D02*
X7335777Y-10624389D01*
X7335777Y-10624389D02*
X7326253Y-10643436D01*
X7326253Y-10643436D02*
X7316729Y-10652960D01*
X7316729Y-10652960D02*
X7297682Y-10662484D01*
X7297682Y-10662484D02*
X7278634Y-10662484D01*
X7278634Y-10662484D02*
X7259586Y-10652960D01*
X7259586Y-10652960D02*
X7250063Y-10643436D01*
X7250063Y-10643436D02*
X7240539Y-10624389D01*
X7240539Y-10624389D02*
X7231015Y-10586293D01*
X7231015Y-10586293D02*
X7231015Y-10538674D01*
X7231015Y-10538674D02*
X7240539Y-10500579D01*
X7240539Y-10500579D02*
X7250063Y-10481531D01*
X7250063Y-10481531D02*
X7259586Y-10472008D01*
X7259586Y-10472008D02*
X7278634Y-10462484D01*
X7431015Y-10643436D02*
X7440539Y-10652960D01*
X7440539Y-10652960D02*
X7431015Y-10662484D01*
X7431015Y-10662484D02*
X7421491Y-10652960D01*
X7421491Y-10652960D02*
X7431015Y-10643436D01*
X7431015Y-10643436D02*
X7431015Y-10662484D01*
X7564348Y-10462484D02*
X7583396Y-10462484D01*
X7583396Y-10462484D02*
X7602444Y-10472008D01*
X7602444Y-10472008D02*
X7611967Y-10481531D01*
X7611967Y-10481531D02*
X7621491Y-10500579D01*
X7621491Y-10500579D02*
X7631015Y-10538674D01*
X7631015Y-10538674D02*
X7631015Y-10586293D01*
X7631015Y-10586293D02*
X7621491Y-10624389D01*
X7621491Y-10624389D02*
X7611967Y-10643436D01*
X7611967Y-10643436D02*
X7602444Y-10652960D01*
X7602444Y-10652960D02*
X7583396Y-10662484D01*
X7583396Y-10662484D02*
X7564348Y-10662484D01*
X7564348Y-10662484D02*
X7545301Y-10652960D01*
X7545301Y-10652960D02*
X7535777Y-10643436D01*
X7535777Y-10643436D02*
X7526253Y-10624389D01*
X7526253Y-10624389D02*
X7516729Y-10586293D01*
X7516729Y-10586293D02*
X7516729Y-10538674D01*
X7516729Y-10538674D02*
X7526253Y-10500579D01*
X7526253Y-10500579D02*
X7535777Y-10481531D01*
X7535777Y-10481531D02*
X7545301Y-10472008D01*
X7545301Y-10472008D02*
X7564348Y-10462484D01*
X7697682Y-10462484D02*
X7821491Y-10462484D01*
X7821491Y-10462484D02*
X7754825Y-10538674D01*
X7754825Y-10538674D02*
X7783396Y-10538674D01*
X7783396Y-10538674D02*
X7802444Y-10548198D01*
X7802444Y-10548198D02*
X7811967Y-10557722D01*
X7811967Y-10557722D02*
X7821491Y-10576770D01*
X7821491Y-10576770D02*
X7821491Y-10624389D01*
X7821491Y-10624389D02*
X7811967Y-10643436D01*
X7811967Y-10643436D02*
X7802444Y-10652960D01*
X7802444Y-10652960D02*
X7783396Y-10662484D01*
X7783396Y-10662484D02*
X7726253Y-10662484D01*
X7726253Y-10662484D02*
X7707206Y-10652960D01*
X7707206Y-10652960D02*
X7697682Y-10643436D01*
X7916729Y-10662484D02*
X7954825Y-10662484D01*
X7954825Y-10662484D02*
X7973872Y-10652960D01*
X7973872Y-10652960D02*
X7983396Y-10643436D01*
X7983396Y-10643436D02*
X8002444Y-10614865D01*
X8002444Y-10614865D02*
X8011967Y-10576770D01*
X8011967Y-10576770D02*
X8011967Y-10500579D01*
X8011967Y-10500579D02*
X8002444Y-10481531D01*
X8002444Y-10481531D02*
X7992920Y-10472008D01*
X7992920Y-10472008D02*
X7973872Y-10462484D01*
X7973872Y-10462484D02*
X7935777Y-10462484D01*
X7935777Y-10462484D02*
X7916729Y-10472008D01*
X7916729Y-10472008D02*
X7907206Y-10481531D01*
X7907206Y-10481531D02*
X7897682Y-10500579D01*
X7897682Y-10500579D02*
X7897682Y-10548198D01*
X7897682Y-10548198D02*
X7907206Y-10567246D01*
X7907206Y-10567246D02*
X7916729Y-10576770D01*
X7916729Y-10576770D02*
X7935777Y-10586293D01*
X7935777Y-10586293D02*
X7973872Y-10586293D01*
X7973872Y-10586293D02*
X7992920Y-10576770D01*
X7992920Y-10576770D02*
X8002444Y-10567246D01*
X8002444Y-10567246D02*
X8011967Y-10548198D01*
X8183396Y-10529150D02*
X8183396Y-10662484D01*
X8135777Y-10452960D02*
X8088158Y-10595817D01*
X8088158Y-10595817D02*
X8211967Y-10595817D01*
X8278634Y-10462484D02*
X8278634Y-10500579D01*
X8354825Y-10462484D02*
X8354825Y-10500579D01*
X8650063Y-10738674D02*
X8640539Y-10729150D01*
X8640539Y-10729150D02*
X8621491Y-10700579D01*
X8621491Y-10700579D02*
X8611968Y-10681531D01*
X8611968Y-10681531D02*
X8602444Y-10652960D01*
X8602444Y-10652960D02*
X8592920Y-10605341D01*
X8592920Y-10605341D02*
X8592920Y-10567246D01*
X8592920Y-10567246D02*
X8602444Y-10519627D01*
X8602444Y-10519627D02*
X8611968Y-10491055D01*
X8611968Y-10491055D02*
X8621491Y-10472008D01*
X8621491Y-10472008D02*
X8640539Y-10443436D01*
X8640539Y-10443436D02*
X8650063Y-10433912D01*
X8707206Y-10462484D02*
X8840539Y-10462484D01*
X8840539Y-10462484D02*
X8754825Y-10662484D01*
X8907206Y-10481531D02*
X8916730Y-10472008D01*
X8916730Y-10472008D02*
X8935777Y-10462484D01*
X8935777Y-10462484D02*
X8983396Y-10462484D01*
X8983396Y-10462484D02*
X9002444Y-10472008D01*
X9002444Y-10472008D02*
X9011968Y-10481531D01*
X9011968Y-10481531D02*
X9021491Y-10500579D01*
X9021491Y-10500579D02*
X9021491Y-10519627D01*
X9021491Y-10519627D02*
X9011968Y-10548198D01*
X9011968Y-10548198D02*
X8897682Y-10662484D01*
X8897682Y-10662484D02*
X9021491Y-10662484D01*
X9259587Y-10662484D02*
X9259587Y-10462484D01*
X9345301Y-10662484D02*
X9345301Y-10557722D01*
X9345301Y-10557722D02*
X9335777Y-10538674D01*
X9335777Y-10538674D02*
X9316730Y-10529150D01*
X9316730Y-10529150D02*
X9288158Y-10529150D01*
X9288158Y-10529150D02*
X9269111Y-10538674D01*
X9269111Y-10538674D02*
X9259587Y-10548198D01*
X9469111Y-10662484D02*
X9450063Y-10652960D01*
X9450063Y-10652960D02*
X9440539Y-10643436D01*
X9440539Y-10643436D02*
X9431015Y-10624389D01*
X9431015Y-10624389D02*
X9431015Y-10567246D01*
X9431015Y-10567246D02*
X9440539Y-10548198D01*
X9440539Y-10548198D02*
X9450063Y-10538674D01*
X9450063Y-10538674D02*
X9469111Y-10529150D01*
X9469111Y-10529150D02*
X9497682Y-10529150D01*
X9497682Y-10529150D02*
X9516730Y-10538674D01*
X9516730Y-10538674D02*
X9526253Y-10548198D01*
X9526253Y-10548198D02*
X9535777Y-10567246D01*
X9535777Y-10567246D02*
X9535777Y-10624389D01*
X9535777Y-10624389D02*
X9526253Y-10643436D01*
X9526253Y-10643436D02*
X9516730Y-10652960D01*
X9516730Y-10652960D02*
X9497682Y-10662484D01*
X9497682Y-10662484D02*
X9469111Y-10662484D01*
X9650063Y-10662484D02*
X9631015Y-10652960D01*
X9631015Y-10652960D02*
X9621492Y-10633912D01*
X9621492Y-10633912D02*
X9621492Y-10462484D01*
X9802444Y-10652960D02*
X9783396Y-10662484D01*
X9783396Y-10662484D02*
X9745301Y-10662484D01*
X9745301Y-10662484D02*
X9726253Y-10652960D01*
X9726253Y-10652960D02*
X9716730Y-10633912D01*
X9716730Y-10633912D02*
X9716730Y-10557722D01*
X9716730Y-10557722D02*
X9726253Y-10538674D01*
X9726253Y-10538674D02*
X9745301Y-10529150D01*
X9745301Y-10529150D02*
X9783396Y-10529150D01*
X9783396Y-10529150D02*
X9802444Y-10538674D01*
X9802444Y-10538674D02*
X9811968Y-10557722D01*
X9811968Y-10557722D02*
X9811968Y-10576770D01*
X9811968Y-10576770D02*
X9716730Y-10595817D01*
X9888158Y-10652960D02*
X9907206Y-10662484D01*
X9907206Y-10662484D02*
X9945301Y-10662484D01*
X9945301Y-10662484D02*
X9964349Y-10652960D01*
X9964349Y-10652960D02*
X9973873Y-10633912D01*
X9973873Y-10633912D02*
X9973873Y-10624389D01*
X9973873Y-10624389D02*
X9964349Y-10605341D01*
X9964349Y-10605341D02*
X9945301Y-10595817D01*
X9945301Y-10595817D02*
X9916730Y-10595817D01*
X9916730Y-10595817D02*
X9897682Y-10586293D01*
X9897682Y-10586293D02*
X9888158Y-10567246D01*
X9888158Y-10567246D02*
X9888158Y-10557722D01*
X9888158Y-10557722D02*
X9897682Y-10538674D01*
X9897682Y-10538674D02*
X9916730Y-10529150D01*
X9916730Y-10529150D02*
X9945301Y-10529150D01*
X9945301Y-10529150D02*
X9964349Y-10538674D01*
X10040539Y-10738674D02*
X10050063Y-10729150D01*
X10050063Y-10729150D02*
X10069111Y-10700579D01*
X10069111Y-10700579D02*
X10078634Y-10681531D01*
X10078634Y-10681531D02*
X10088158Y-10652960D01*
X10088158Y-10652960D02*
X10097682Y-10605341D01*
X10097682Y-10605341D02*
X10097682Y-10567246D01*
X10097682Y-10567246D02*
X10088158Y-10519627D01*
X10088158Y-10519627D02*
X10078634Y-10491055D01*
X10078634Y-10491055D02*
X10069111Y-10472008D01*
X10069111Y-10472008D02*
X10050063Y-10443436D01*
X10050063Y-10443436D02*
X10040539Y-10433912D01*
D12*
X5057427Y-10877427D02*
X5057427Y-10792573D01*
X4972573Y-10792573D01*
X4972573Y-10877427D01*
X5057427Y-10877427D01*
D11*
X5440539Y-10926484D02*
X5326253Y-10926484D01*
X5383396Y-10926484D02*
X5383396Y-10726484D01*
X5383396Y-10726484D02*
X5364348Y-10755055D01*
X5364348Y-10755055D02*
X5345301Y-10774103D01*
X5345301Y-10774103D02*
X5326253Y-10783627D01*
X5526253Y-10907436D02*
X5535777Y-10916960D01*
X5535777Y-10916960D02*
X5526253Y-10926484D01*
X5526253Y-10926484D02*
X5516729Y-10916960D01*
X5516729Y-10916960D02*
X5526253Y-10907436D01*
X5526253Y-10907436D02*
X5526253Y-10926484D01*
X5611967Y-10745531D02*
X5621491Y-10736008D01*
X5621491Y-10736008D02*
X5640539Y-10726484D01*
X5640539Y-10726484D02*
X5688158Y-10726484D01*
X5688158Y-10726484D02*
X5707205Y-10736008D01*
X5707205Y-10736008D02*
X5716729Y-10745531D01*
X5716729Y-10745531D02*
X5726253Y-10764579D01*
X5726253Y-10764579D02*
X5726253Y-10783627D01*
X5726253Y-10783627D02*
X5716729Y-10812198D01*
X5716729Y-10812198D02*
X5602443Y-10926484D01*
X5602443Y-10926484D02*
X5726253Y-10926484D01*
X5850062Y-10726484D02*
X5869110Y-10726484D01*
X5869110Y-10726484D02*
X5888158Y-10736008D01*
X5888158Y-10736008D02*
X5897682Y-10745531D01*
X5897682Y-10745531D02*
X5907205Y-10764579D01*
X5907205Y-10764579D02*
X5916729Y-10802674D01*
X5916729Y-10802674D02*
X5916729Y-10850293D01*
X5916729Y-10850293D02*
X5907205Y-10888389D01*
X5907205Y-10888389D02*
X5897682Y-10907436D01*
X5897682Y-10907436D02*
X5888158Y-10916960D01*
X5888158Y-10916960D02*
X5869110Y-10926484D01*
X5869110Y-10926484D02*
X5850062Y-10926484D01*
X5850062Y-10926484D02*
X5831015Y-10916960D01*
X5831015Y-10916960D02*
X5821491Y-10907436D01*
X5821491Y-10907436D02*
X5811967Y-10888389D01*
X5811967Y-10888389D02*
X5802443Y-10850293D01*
X5802443Y-10850293D02*
X5802443Y-10802674D01*
X5802443Y-10802674D02*
X5811967Y-10764579D01*
X5811967Y-10764579D02*
X5821491Y-10745531D01*
X5821491Y-10745531D02*
X5831015Y-10736008D01*
X5831015Y-10736008D02*
X5850062Y-10726484D01*
X6040539Y-10726484D02*
X6059586Y-10726484D01*
X6059586Y-10726484D02*
X6078634Y-10736008D01*
X6078634Y-10736008D02*
X6088158Y-10745531D01*
X6088158Y-10745531D02*
X6097682Y-10764579D01*
X6097682Y-10764579D02*
X6107205Y-10802674D01*
X6107205Y-10802674D02*
X6107205Y-10850293D01*
X6107205Y-10850293D02*
X6097682Y-10888389D01*
X6097682Y-10888389D02*
X6088158Y-10907436D01*
X6088158Y-10907436D02*
X6078634Y-10916960D01*
X6078634Y-10916960D02*
X6059586Y-10926484D01*
X6059586Y-10926484D02*
X6040539Y-10926484D01*
X6040539Y-10926484D02*
X6021491Y-10916960D01*
X6021491Y-10916960D02*
X6011967Y-10907436D01*
X6011967Y-10907436D02*
X6002443Y-10888389D01*
X6002443Y-10888389D02*
X5992920Y-10850293D01*
X5992920Y-10850293D02*
X5992920Y-10802674D01*
X5992920Y-10802674D02*
X6002443Y-10764579D01*
X6002443Y-10764579D02*
X6011967Y-10745531D01*
X6011967Y-10745531D02*
X6021491Y-10736008D01*
X6021491Y-10736008D02*
X6040539Y-10726484D01*
X6192920Y-10926484D02*
X6192920Y-10793150D01*
X6192920Y-10812198D02*
X6202443Y-10802674D01*
X6202443Y-10802674D02*
X6221491Y-10793150D01*
X6221491Y-10793150D02*
X6250063Y-10793150D01*
X6250063Y-10793150D02*
X6269110Y-10802674D01*
X6269110Y-10802674D02*
X6278634Y-10821722D01*
X6278634Y-10821722D02*
X6278634Y-10926484D01*
X6278634Y-10821722D02*
X6288158Y-10802674D01*
X6288158Y-10802674D02*
X6307205Y-10793150D01*
X6307205Y-10793150D02*
X6335777Y-10793150D01*
X6335777Y-10793150D02*
X6354824Y-10802674D01*
X6354824Y-10802674D02*
X6364348Y-10821722D01*
X6364348Y-10821722D02*
X6364348Y-10926484D01*
X6459586Y-10926484D02*
X6459586Y-10793150D01*
X6459586Y-10812198D02*
X6469110Y-10802674D01*
X6469110Y-10802674D02*
X6488158Y-10793150D01*
X6488158Y-10793150D02*
X6516729Y-10793150D01*
X6516729Y-10793150D02*
X6535777Y-10802674D01*
X6535777Y-10802674D02*
X6545301Y-10821722D01*
X6545301Y-10821722D02*
X6545301Y-10926484D01*
X6545301Y-10821722D02*
X6554824Y-10802674D01*
X6554824Y-10802674D02*
X6573872Y-10793150D01*
X6573872Y-10793150D02*
X6602443Y-10793150D01*
X6602443Y-10793150D02*
X6621491Y-10802674D01*
X6621491Y-10802674D02*
X6631015Y-10821722D01*
X6631015Y-10821722D02*
X6631015Y-10926484D01*
X7021491Y-10716960D02*
X6850063Y-10974103D01*
X7278634Y-10726484D02*
X7297682Y-10726484D01*
X7297682Y-10726484D02*
X7316729Y-10736008D01*
X7316729Y-10736008D02*
X7326253Y-10745531D01*
X7326253Y-10745531D02*
X7335777Y-10764579D01*
X7335777Y-10764579D02*
X7345301Y-10802674D01*
X7345301Y-10802674D02*
X7345301Y-10850293D01*
X7345301Y-10850293D02*
X7335777Y-10888389D01*
X7335777Y-10888389D02*
X7326253Y-10907436D01*
X7326253Y-10907436D02*
X7316729Y-10916960D01*
X7316729Y-10916960D02*
X7297682Y-10926484D01*
X7297682Y-10926484D02*
X7278634Y-10926484D01*
X7278634Y-10926484D02*
X7259586Y-10916960D01*
X7259586Y-10916960D02*
X7250063Y-10907436D01*
X7250063Y-10907436D02*
X7240539Y-10888389D01*
X7240539Y-10888389D02*
X7231015Y-10850293D01*
X7231015Y-10850293D02*
X7231015Y-10802674D01*
X7231015Y-10802674D02*
X7240539Y-10764579D01*
X7240539Y-10764579D02*
X7250063Y-10745531D01*
X7250063Y-10745531D02*
X7259586Y-10736008D01*
X7259586Y-10736008D02*
X7278634Y-10726484D01*
X7431015Y-10907436D02*
X7440539Y-10916960D01*
X7440539Y-10916960D02*
X7431015Y-10926484D01*
X7431015Y-10926484D02*
X7421491Y-10916960D01*
X7421491Y-10916960D02*
X7431015Y-10907436D01*
X7431015Y-10907436D02*
X7431015Y-10926484D01*
X7564348Y-10726484D02*
X7583396Y-10726484D01*
X7583396Y-10726484D02*
X7602444Y-10736008D01*
X7602444Y-10736008D02*
X7611967Y-10745531D01*
X7611967Y-10745531D02*
X7621491Y-10764579D01*
X7621491Y-10764579D02*
X7631015Y-10802674D01*
X7631015Y-10802674D02*
X7631015Y-10850293D01*
X7631015Y-10850293D02*
X7621491Y-10888389D01*
X7621491Y-10888389D02*
X7611967Y-10907436D01*
X7611967Y-10907436D02*
X7602444Y-10916960D01*
X7602444Y-10916960D02*
X7583396Y-10926484D01*
X7583396Y-10926484D02*
X7564348Y-10926484D01*
X7564348Y-10926484D02*
X7545301Y-10916960D01*
X7545301Y-10916960D02*
X7535777Y-10907436D01*
X7535777Y-10907436D02*
X7526253Y-10888389D01*
X7526253Y-10888389D02*
X7516729Y-10850293D01*
X7516729Y-10850293D02*
X7516729Y-10802674D01*
X7516729Y-10802674D02*
X7526253Y-10764579D01*
X7526253Y-10764579D02*
X7535777Y-10745531D01*
X7535777Y-10745531D02*
X7545301Y-10736008D01*
X7545301Y-10736008D02*
X7564348Y-10726484D01*
X7802444Y-10793150D02*
X7802444Y-10926484D01*
X7754825Y-10716960D02*
X7707206Y-10859817D01*
X7707206Y-10859817D02*
X7831015Y-10859817D01*
X7888158Y-10726484D02*
X8021491Y-10726484D01*
X8021491Y-10726484D02*
X7935777Y-10926484D01*
X8088158Y-10745531D02*
X8097682Y-10736008D01*
X8097682Y-10736008D02*
X8116729Y-10726484D01*
X8116729Y-10726484D02*
X8164348Y-10726484D01*
X8164348Y-10726484D02*
X8183396Y-10736008D01*
X8183396Y-10736008D02*
X8192920Y-10745531D01*
X8192920Y-10745531D02*
X8202444Y-10764579D01*
X8202444Y-10764579D02*
X8202444Y-10783627D01*
X8202444Y-10783627D02*
X8192920Y-10812198D01*
X8192920Y-10812198D02*
X8078634Y-10926484D01*
X8078634Y-10926484D02*
X8202444Y-10926484D01*
X8278634Y-10726484D02*
X8278634Y-10764579D01*
X8354825Y-10726484D02*
X8354825Y-10764579D01*
X8650063Y-11002674D02*
X8640539Y-10993150D01*
X8640539Y-10993150D02*
X8621491Y-10964579D01*
X8621491Y-10964579D02*
X8611968Y-10945531D01*
X8611968Y-10945531D02*
X8602444Y-10916960D01*
X8602444Y-10916960D02*
X8592920Y-10869341D01*
X8592920Y-10869341D02*
X8592920Y-10831246D01*
X8592920Y-10831246D02*
X8602444Y-10783627D01*
X8602444Y-10783627D02*
X8611968Y-10755055D01*
X8611968Y-10755055D02*
X8621491Y-10736008D01*
X8621491Y-10736008D02*
X8640539Y-10707436D01*
X8640539Y-10707436D02*
X8650063Y-10697912D01*
X8707206Y-10726484D02*
X8831015Y-10726484D01*
X8831015Y-10726484D02*
X8764349Y-10802674D01*
X8764349Y-10802674D02*
X8792920Y-10802674D01*
X8792920Y-10802674D02*
X8811968Y-10812198D01*
X8811968Y-10812198D02*
X8821491Y-10821722D01*
X8821491Y-10821722D02*
X8831015Y-10840770D01*
X8831015Y-10840770D02*
X8831015Y-10888389D01*
X8831015Y-10888389D02*
X8821491Y-10907436D01*
X8821491Y-10907436D02*
X8811968Y-10916960D01*
X8811968Y-10916960D02*
X8792920Y-10926484D01*
X8792920Y-10926484D02*
X8735777Y-10926484D01*
X8735777Y-10926484D02*
X8716730Y-10916960D01*
X8716730Y-10916960D02*
X8707206Y-10907436D01*
X9069111Y-10926484D02*
X9069111Y-10726484D01*
X9154825Y-10926484D02*
X9154825Y-10821722D01*
X9154825Y-10821722D02*
X9145301Y-10802674D01*
X9145301Y-10802674D02*
X9126253Y-10793150D01*
X9126253Y-10793150D02*
X9097682Y-10793150D01*
X9097682Y-10793150D02*
X9078634Y-10802674D01*
X9078634Y-10802674D02*
X9069111Y-10812198D01*
X9278634Y-10926484D02*
X9259587Y-10916960D01*
X9259587Y-10916960D02*
X9250063Y-10907436D01*
X9250063Y-10907436D02*
X9240539Y-10888389D01*
X9240539Y-10888389D02*
X9240539Y-10831246D01*
X9240539Y-10831246D02*
X9250063Y-10812198D01*
X9250063Y-10812198D02*
X9259587Y-10802674D01*
X9259587Y-10802674D02*
X9278634Y-10793150D01*
X9278634Y-10793150D02*
X9307206Y-10793150D01*
X9307206Y-10793150D02*
X9326253Y-10802674D01*
X9326253Y-10802674D02*
X9335777Y-10812198D01*
X9335777Y-10812198D02*
X9345301Y-10831246D01*
X9345301Y-10831246D02*
X9345301Y-10888389D01*
X9345301Y-10888389D02*
X9335777Y-10907436D01*
X9335777Y-10907436D02*
X9326253Y-10916960D01*
X9326253Y-10916960D02*
X9307206Y-10926484D01*
X9307206Y-10926484D02*
X9278634Y-10926484D01*
X9459587Y-10926484D02*
X9440539Y-10916960D01*
X9440539Y-10916960D02*
X9431015Y-10897912D01*
X9431015Y-10897912D02*
X9431015Y-10726484D01*
X9611968Y-10916960D02*
X9592920Y-10926484D01*
X9592920Y-10926484D02*
X9554825Y-10926484D01*
X9554825Y-10926484D02*
X9535777Y-10916960D01*
X9535777Y-10916960D02*
X9526253Y-10897912D01*
X9526253Y-10897912D02*
X9526253Y-10821722D01*
X9526253Y-10821722D02*
X9535777Y-10802674D01*
X9535777Y-10802674D02*
X9554825Y-10793150D01*
X9554825Y-10793150D02*
X9592920Y-10793150D01*
X9592920Y-10793150D02*
X9611968Y-10802674D01*
X9611968Y-10802674D02*
X9621492Y-10821722D01*
X9621492Y-10821722D02*
X9621492Y-10840770D01*
X9621492Y-10840770D02*
X9526253Y-10859817D01*
X9697682Y-10916960D02*
X9716730Y-10926484D01*
X9716730Y-10926484D02*
X9754825Y-10926484D01*
X9754825Y-10926484D02*
X9773873Y-10916960D01*
X9773873Y-10916960D02*
X9783396Y-10897912D01*
X9783396Y-10897912D02*
X9783396Y-10888389D01*
X9783396Y-10888389D02*
X9773873Y-10869341D01*
X9773873Y-10869341D02*
X9754825Y-10859817D01*
X9754825Y-10859817D02*
X9726253Y-10859817D01*
X9726253Y-10859817D02*
X9707206Y-10850293D01*
X9707206Y-10850293D02*
X9697682Y-10831246D01*
X9697682Y-10831246D02*
X9697682Y-10821722D01*
X9697682Y-10821722D02*
X9707206Y-10802674D01*
X9707206Y-10802674D02*
X9726253Y-10793150D01*
X9726253Y-10793150D02*
X9754825Y-10793150D01*
X9754825Y-10793150D02*
X9773873Y-10802674D01*
X9850063Y-11002674D02*
X9859587Y-10993150D01*
X9859587Y-10993150D02*
X9878634Y-10964579D01*
X9878634Y-10964579D02*
X9888158Y-10945531D01*
X9888158Y-10945531D02*
X9897682Y-10916960D01*
X9897682Y-10916960D02*
X9907206Y-10869341D01*
X9907206Y-10869341D02*
X9907206Y-10831246D01*
X9907206Y-10831246D02*
X9897682Y-10783627D01*
X9897682Y-10783627D02*
X9888158Y-10755055D01*
X9888158Y-10755055D02*
X9878634Y-10736008D01*
X9878634Y-10736008D02*
X9859587Y-10707436D01*
X9859587Y-10707436D02*
X9850063Y-10697912D01*
M02*
